<?xml version="1.0" encoding="UTF-8"?>
<svg version="1.1" xmlns="http://www.w3.org/2000/svg" width="1160" height="1197">
<path d="M0 0 C1.63730853 -0.00134971 3.27461675 -0.00313533 4.91192439 -0.00531223 C9.38816971 -0.01000922 13.86439451 -0.00855137 18.34064079 -0.00603446 C23.21930348 -0.00439359 28.09796193 -0.00854867 32.97662324 -0.01194364 C41.51968665 -0.01708644 50.0627444 -0.01851679 58.60580921 -0.01748753 C71.30991976 -0.01596069 84.01402406 -0.02012854 96.71813339 -0.02536215 C120.72857474 -0.03502738 144.73901397 -0.03784607 168.74945704 -0.03841921 C187.29061365 -0.0388789 205.83176942 -0.04093802 224.37292576 -0.04411983 C229.71157573 -0.04501739 235.05022569 -0.0459073 240.38887566 -0.04679471 C241.05218418 -0.0469053 241.7154927 -0.04701589 242.39890147 -0.04712983 C280.39522449 -0.05345144 318.39154722 -0.0575792 356.38787079 -0.05712128 C357.80900377 -0.0571055 359.23013676 -0.05708976 360.65126975 -0.05707407 C367.0672378 -0.05700069 373.48320586 -0.05691252 379.89917392 -0.05682018 C382.76008539 -0.05677906 385.62099686 -0.05673891 388.48190833 -0.05669887 C389.9138434 -0.05667848 391.34577846 -0.05665746 392.77771353 -0.05663581 C438.05906073 -0.05595554 483.3404001 -0.06327442 528.62174511 -0.07717609 C540.03206823 -0.08067725 551.44239136 -0.08414677 562.85271454 -0.08744049 C563.55533903 -0.08764336 564.25796352 -0.08784624 564.98187966 -0.08805526 C586.64443101 -0.09427219 608.30698172 -0.09803619 629.96953392 -0.09929848 C630.64984827 -0.09933843 631.33016262 -0.09937838 632.03109255 -0.09941954 C646.96701725 -0.10027289 661.90294191 -0.10053398 676.83886663 -0.10024916 C682.84859207 -0.10014068 688.85831751 -0.10009342 694.86804295 -0.10005856 C696.18277423 -0.1000469 697.49750552 -0.10003525 698.85207715 -0.10002324 C720.00605363 -0.09999247 741.1600235 -0.10637724 762.31399801 -0.11499082 C783.57289904 -0.12346812 804.83179041 -0.12445661 826.0906922 -0.1178815 C838.71784252 -0.1141866 851.34496348 -0.11601647 863.9721107 -0.12582384 C872.41145767 -0.13182448 880.85078339 -0.13052742 889.29012939 -0.12335334 C894.09528796 -0.11947263 898.90038971 -0.11869395 903.70554427 -0.12681069 C908.08655236 -0.13414596 912.46745688 -0.13208741 916.84846053 -0.12288683 C918.41413863 -0.12118127 919.97982508 -0.12274155 921.54549463 -0.12818803 C935.70135909 -0.17408954 950.23373308 0.46851963 963.946208 4.25363445 C964.72705761 4.46753826 965.50790722 4.68144207 966.31241894 4.90182781 C981.2254631 9.2350805 992.66474189 17.08407867 1004.321208 27.12863445 C1005.15909863 27.82601727 1005.99698925 28.52340008 1006.8602705 29.2419157 C1024.26129215 43.93828418 1034.9762523 66.75299603 1037.321208 89.12863445 C1037.55796987 92.08771867 1037.72645011 95.04762972 1037.87549376 98.01232564 C1037.93868306 99.25186621 1037.93868306 99.25186621 1038.0031489 100.516448 C1038.40688823 109.00905278 1038.46284328 117.48905066 1038.45263577 125.98957539 C1038.45429097 127.70688742 1038.45637976 129.42419908 1038.45885587 131.14151013 C1038.46436046 135.82123169 1038.46376168 140.50093475 1038.46207828 145.18065849 C1038.46134138 150.28683319 1038.46638355 155.39300291 1038.4706533 160.49917543 C1038.47820068 170.60845267 1038.48042468 180.71772462 1038.48098235 190.82700438 C1038.48189917 202.94272458 1038.48857592 215.05843995 1038.49532918 227.17415805 C1038.51097518 255.74916372 1038.51707257 284.32416813 1038.5217362 312.89917704 C1038.52412294 327.44193361 1038.52782702 341.98468971 1038.5317733 356.52744593 C1038.544432 403.20467756 1038.55521801 449.88190918 1038.55861376 496.55914249 C1038.558776 498.78761715 1038.55894156 501.01609181 1038.55910814 503.24456647 C1038.55944193 507.71355874 1038.55977241 512.182551 1038.5601027 516.65154326 C1038.56048959 521.88327868 1038.5608792 527.11501411 1038.56127377 532.34674953 C1038.56138619 533.84409394 1038.5614976 535.34143834 1038.56160802 536.83878275 C1038.56515902 584.94976909 1038.58024727 633.0607405 1038.60354576 681.17172114 C1038.62029117 715.76467546 1038.63576359 750.35762695 1038.64028072 784.95058537 C1038.64042095 786.01798609 1038.64042095 786.01798609 1038.64056401 787.10695048 C1038.64258316 802.72907747 1038.64373912 818.35120443 1038.6440926 833.97333155 C1038.64422877 839.56319999 1038.64443776 845.15306843 1038.64468585 850.74293686 C1038.64474741 852.13348384 1038.64480573 853.52403082 1038.6448608 854.91457779 C1038.64577981 877.05265001 1038.65573794 899.19070662 1038.67031829 921.32877371 C1038.68535164 944.24623467 1038.68951695 967.16367725 1038.68122533 990.08114363 C1038.67676813 1003.28842389 1038.68063351 1016.49564017 1038.69646384 1029.70291202 C1038.7062127 1038.52753795 1038.70503645 1047.35211903 1038.69502761 1056.17674454 C1038.68963519 1061.20272629 1038.6889269 1066.22858516 1038.70153633 1071.25455673 C1038.71293127 1075.8347339 1038.71028982 1080.41468896 1038.69686925 1084.99485868 C1038.6944514 1086.6337334 1038.69696156 1088.27262555 1038.70526573 1089.91148101 C1038.82441013 1115.09873848 1032.73389011 1142.17015595 1014.649333 1160.80832195 C1013.88105175 1161.57402508 1013.1127705 1162.3397282 1012.321208 1163.12863445 C1011.57355175 1163.93558758 1010.8258955 1164.7425407 1010.055583 1165.57394695 C992.00960145 1184.63576191 968.82796127 1196.06953235 942.44976076 1197.31081346 C938.1718723 1197.40714796 933.89470474 1197.39413569 929.61601925 1197.38031673 C927.96353661 1197.38240726 926.31105488 1197.38537291 924.65857518 1197.38912547 C920.13546132 1197.39687838 915.6124334 1197.3922722 911.08932101 1197.38556956 C906.1614935 1197.38048066 901.23367881 1197.38702216 896.30585313 1197.39205623 C887.67467704 1197.39927116 879.04352598 1197.39906564 870.41234875 1197.39396191 C857.57677732 1197.38639275 844.74122698 1197.39026673 831.90565569 1197.39637852 C808.97709881 1197.40690974 786.04855307 1197.40599706 763.11999513 1197.4002207 C743.04728674 1197.39518873 722.97458247 1197.39387328 702.90187359 1197.39626598 C701.55671935 1197.39642094 700.21156511 1197.39657526 698.86641087 1197.39672892 C693.46040429 1197.39734989 688.05439772 1197.39798722 682.64839115 1197.39864845 C667.53601008 1197.4004824 652.423629 1197.40162366 637.31124783 1197.40222073 C636.6230728 1197.40224802 635.93489777 1197.40227531 635.22586895 1197.40230343 C613.30008144 1197.40312189 591.37429533 1197.40086884 569.44850826 1197.39652157 C568.73747666 1197.39638107 568.02644505 1197.39624057 567.29386703 1197.39609582 C555.74795592 1197.39380605 544.20204484 1197.39136706 532.65613377 1197.38891547 C486.89702699 1197.37920961 441.13793191 1197.37964802 395.37882519 1197.38937664 C383.85296028 1197.3918192 372.32709537 1197.39424138 360.80123043 1197.39652157 C359.73656741 1197.39673291 359.73656741 1197.39673291 358.65039605 1197.39694853 C336.75782578 1197.40126453 314.86525649 1197.40308873 292.97268581 1197.40222073 C292.28485736 1197.40219356 291.5970289 1197.40216639 290.88835716 1197.4021384 C275.78525842 1197.40151327 260.6821598 1197.40024567 245.57906117 1197.39839972 C240.17416416 1197.39774149 234.76926716 1197.39711532 229.36437015 1197.3964983 C228.0198609 1197.39634352 226.67535166 1197.39618606 225.33084241 1197.39602591 C204.61094154 1197.39356459 183.89104571 1197.39599725 163.17114544 1197.40122509 C140.35788557 1197.40695245 117.54463858 1197.40549543 94.73138031 1197.3946636 C81.97483323 1197.38880596 69.21831407 1197.38838597 56.46176773 1197.39595595 C47.92592005 1197.40046099 39.39009462 1197.39761316 30.85425023 1197.38894641 C26.00052081 1197.38421771 21.1468466 1197.38250128 16.29311904 1197.38975838 C-16.72878946 1197.43526709 -16.72878946 1197.43526709 -32.5931406 1196.25729275 C-33.60661543 1196.18242123 -34.62009025 1196.10754971 -35.66427644 1196.03040935 C-56.36423736 1194.22822275 -78.9630481 1183.45368384 -92.8116045 1167.7028532 C-95.1607636 1164.88784391 -97.42895597 1162.02350119 -99.678792 1159.12863445 C-100.37359669 1158.26109539 -101.06840137 1157.39355633 -101.78426075 1156.4997282 C-117.17683106 1136.52213695 -120.99988151 1112.71176097 -120.94329834 1088.07821274 C-120.94679616 1086.3880177 -120.95116433 1084.69782428 -120.95631549 1083.00763348 C-120.96791611 1078.37978585 -120.96722786 1073.7520108 -120.96446495 1069.12415251 C-120.96365764 1064.08270265 -120.97441725 1059.04127501 -120.98368484 1053.99983543 C-120.99832889 1045.16903215 -121.00560987 1036.33824673 -121.00803661 1027.50743198 C-121.01167239 1014.37473533 -121.02669588 1001.24206881 -121.04399067 988.10938393 C-121.07275264 966.00878105 -121.09215375 943.90817731 -121.1060133 921.80756092 C-121.11976288 899.90630426 -121.13718899 878.00505602 -121.15966702 856.1038065 C-121.1610753 854.72717715 -121.16248338 853.35054781 -121.16389123 851.97391847 C-121.16955626 846.44134826 -121.17524963 840.90877809 -121.18097789 835.37620796 C-121.19698377 819.90961238 -121.21232702 804.44301618 -121.22718239 788.97641945 C-121.22785917 788.27210077 -121.22853595 787.5677821 -121.22923325 786.84212043 C-121.25075331 764.40091972 -121.26942294 741.9597176 -121.28601837 719.51851273 C-121.28655663 718.79074582 -121.28709488 718.06297892 -121.28764945 717.31315847 C-121.29637684 705.49559351 -121.30492011 693.67802842 -121.31345394 681.86046332 C-121.34727789 635.03700331 -121.38837993 588.2135562 -121.43684864 541.39010906 C-121.43837818 539.91130416 -121.43990754 538.43249925 -121.44143672 536.95369435 C-121.44372843 534.73758808 -121.44602024 532.52148182 -121.44831258 530.30537555 C-121.45592842 522.94276105 -121.46353688 515.58014655 -121.47112659 508.21753202 C-121.47263929 506.75013484 -121.47415265 505.28273766 -121.47566668 503.81534048 C-121.51616885 464.54740389 -121.55161716 425.27946292 -121.58518821 386.01151985 C-121.58637375 384.62568135 -121.5875593 383.23984286 -121.58874485 381.85400436 C-121.58992778 380.47073854 -121.59111062 379.08747272 -121.59229336 377.7042069 C-121.59287803 377.0204386 -121.59346269 376.33667031 -121.59406508 375.63218177 C-121.59700781 372.18945516 -121.5999449 368.74672854 -121.60287208 365.30400192 C-121.61569067 350.24093992 -121.62908561 335.17787878 -121.64411998 320.11481881 C-121.64479526 319.43773707 -121.64547054 318.76065533 -121.64616628 318.06305596 C-121.64956775 314.65466012 -121.65297708 311.24626429 -121.65638738 307.83786845 C-121.68108951 283.13338443 -121.70226247 258.42890042 -121.71748956 233.72440846 C-121.72562609 220.67341972 -121.73650499 207.62244045 -121.75147788 194.57145772 C-121.76121094 185.83296797 -121.76714261 177.09448074 -121.7700917 168.35598609 C-121.77186681 163.39062449 -121.7751598 158.42527831 -121.78307792 153.45992238 C-121.81016255 135.83189719 -121.79318849 118.21541732 -121.23140144 100.59478951 C-121.19201561 99.34518008 -121.15262977 98.09557065 -121.11205043 96.80809427 C-120.34317922 75.46181677 -114.78953353 54.77239605 -99.0616045 39.4606657 C-97.03369542 37.47597436 -95.68132448 35.78402205 -94.241292 33.37863445 C-91.11167134 28.80960639 -86.31746975 26.33274841 -81.70467091 23.44211102 C-79.34531868 21.91242736 -77.05161643 20.30282403 -74.75301075 18.68332195 C-64.72457112 11.67382117 -55.71226082 5.8308871 -43.678792 3.12863445 C-42.66945606 2.90175945 -41.66012012 2.67488445 -40.62019825 2.44113445 C-27.28232738 -0.10953408 -13.52931575 -0.01950897 0 0 Z " fill="#E9D29C" transform="translate(121.6787919998169,-0.12863445281982422)"/>
<path d="M0 0 C6.19053094 0.00257649 12.38106059 0.00017114 18.57159162 -0.00138617 C28.97604891 -0.00319502 39.38049906 -0.00083795 49.78495526 0.00395441 C61.67707942 0.00937006 73.56918636 0.00764883 85.46131009 0.00212801 C95.79207731 -0.00246956 106.12283946 -0.00302109 116.45360738 -0.00043333 C122.56973515 0.00109669 128.68585496 0.0014171 134.80198216 -0.00196981 C165.96988707 -0.01694165 197.10614567 0.33984546 228.26420331 1.1343255 C228.26420331 11.6943255 228.26420331 22.2543255 228.26420331 33.1343255 C239.15420331 33.1343255 250.04420331 33.1343255 261.26420331 33.1343255 C261.26420331 85.2743255 261.26420331 137.4143255 261.26420331 191.1343255 C250.37420331 191.1343255 239.48420331 191.1343255 228.26420331 191.1343255 C228.26420331 201.0343255 228.26420331 210.9343255 228.26420331 221.1343255 C180.74420331 221.1343255 133.22420331 221.1343255 84.26420331 221.1343255 C84.26420331 232.0243255 84.26420331 242.9143255 84.26420331 254.1343255 C113.30420331 254.1343255 142.34420331 254.1343255 172.26420331 254.1343255 C172.26420331 264.0343255 172.26420331 273.9343255 172.26420331 284.1343255 C143.22420331 284.1343255 114.18420331 284.1343255 84.26420331 284.1343255 C84.26420331 274.5643255 84.26420331 264.9943255 84.26420331 255.1343255 C74.03420331 255.1343255 63.80420331 255.1343255 53.26420331 255.1343255 C52.93420331 274.9343255 52.60420331 294.7343255 52.26420331 315.1343255 C72.72420331 315.1343255 93.18420331 315.1343255 114.26420331 315.1343255 C114.26420331 334.9343255 114.26420331 354.7343255 114.26420331 375.1343255 C135.05420331 375.1343255 155.84420331 375.1343255 177.26420331 375.1343255 C177.26420331 396.2543255 177.26420331 417.3743255 177.26420331 439.1343255 C166.70420331 439.1343255 156.14420331 439.1343255 145.26420331 439.1343255 C144.93420331 429.2343255 144.60420331 419.3343255 144.26420331 409.1343255 C114.56420331 408.6393255 114.56420331 408.6393255 84.26420331 408.1343255 C84.26420331 397.2443255 84.26420331 386.3543255 84.26420331 375.1343255 C73.70420331 375.1343255 63.14420331 375.1343255 52.26420331 375.1343255 C52.26420331 418.0343255 52.26420331 460.9343255 52.26420331 505.1343255 C42.03420331 505.1343255 31.80420331 505.1343255 21.26420331 505.1343255 C21.26420331 516.3543255 21.26420331 527.5743255 21.26420331 539.1343255 C11.36420331 539.1343255 1.46420331 539.1343255 -8.73579669 539.1343255 C-8.73579669 595.2343255 -8.73579669 651.3343255 -8.73579669 709.1343255 C0.83420331 709.1343255 10.40420331 709.1343255 20.26420331 709.1343255 C20.92420331 709.4643255 21.58420331 709.7943255 22.26420331 710.1343255 C22.31375446 716.14831077 22.34999462 722.16217636 22.37406659 728.17631769 C22.3841051 730.22093511 22.39773873 732.26553825 22.41508222 734.31010675 C22.43942501 737.25415311 22.45070809 740.19800913 22.45951581 743.142138 C22.46983838 744.0517428 22.48016095 744.9613476 22.49079633 745.89851618 C22.49164322 750.7223709 22.14820802 754.60358752 20.26420331 759.1343255 C14.59834766 760.10087076 9.12256226 760.2798111 3.38139081 760.267138 C1.94668691 760.26918489 1.94668691 760.26918489 0.48299909 760.27127314 C-2.63163479 760.2732971 -5.74617252 760.26698327 -8.86079669 760.2593255 C-9.9204967 760.25810694 -10.98019671 760.25688837 -12.07200885 760.25563288 C-26.77652088 760.23581641 -41.47368152 760.0805839 -56.17329669 759.6968255 C-56.96955462 759.67726801 -57.76581256 759.65771051 -58.58619952 759.63756037 C-60.80165344 759.58132294 -63.01673913 759.51774194 -65.23189044 759.45073175 C-66.47124347 759.41407404 -67.71059649 759.37741632 -68.98750567 759.33964777 C-71.73579669 759.1343255 -71.73579669 759.1343255 -72.73579669 758.1343255 C-72.83182691 756.51476211 -72.85767524 754.89099468 -72.85605121 753.26858759 C-72.85742587 752.21544367 -72.85880054 751.16229975 -72.86021686 750.07724237 C-72.85662158 748.91199533 -72.8530263 747.74674829 -72.84932208 746.54619074 C-72.84946811 745.32684839 -72.84961413 744.10750605 -72.84976459 742.85121393 C-72.84918562 739.49805039 -72.84415637 736.14494776 -72.83719063 732.79179502 C-72.83095652 729.29106989 -72.83035325 725.79034402 -72.82916522 722.2896142 C-72.82605207 715.65622895 -72.81783891 709.0228601 -72.80781573 702.38948208 C-72.79665408 694.83942343 -72.79114401 687.28936402 -72.7861203 679.73929918 C-72.77565628 664.20429683 -72.75731101 648.66931708 -72.73579669 633.1343255 C-82.63579669 633.1343255 -92.53579669 633.1343255 -102.73579669 633.1343255 C-102.73579669 622.5743255 -102.73579669 612.0143255 -102.73579669 601.1343255 C-116.26579669 601.1343255 -129.79579669 601.1343255 -143.73579669 601.1343255 C-143.73579669 611.6943255 -143.73579669 622.2543255 -143.73579669 633.1343255 C-153.96579669 633.1343255 -164.19579669 633.1343255 -174.73579669 633.1343255 C-174.73579669 643.6943255 -174.73579669 654.2543255 -174.73579669 665.1343255 C-183.97579669 665.1343255 -193.21579669 665.1343255 -202.73579669 665.1343255 C-202.73579669 680.3143255 -202.73579669 695.4943255 -202.73579669 711.1343255 C-191.51579669 711.1343255 -180.29579669 711.1343255 -168.73579669 711.1343255 C-168.73579669 726.9743255 -168.73579669 742.8143255 -168.73579669 759.1343255 C-197.77579669 759.1343255 -226.81579669 759.1343255 -256.73579669 759.1343255 C-256.73579669 706.6643255 -256.73579669 654.1943255 -256.73579669 600.1343255 C-266.96579669 600.1343255 -277.19579669 600.1343255 -287.73579669 600.1343255 C-287.73579669 590.2343255 -287.73579669 580.3343255 -287.73579669 570.1343255 C-298.62579669 570.1343255 -309.51579669 570.1343255 -320.73579669 570.1343255 C-320.73579669 559.9043255 -320.73579669 549.6743255 -320.73579669 539.1343255 C-330.96579669 539.1343255 -341.19579669 539.1343255 -351.73579669 539.1343255 C-351.73579669 528.5743255 -351.73579669 518.0143255 -351.73579669 507.1343255 C-362.62579669 507.1343255 -373.51579669 507.1343255 -384.73579669 507.1343255 C-384.73579669 496.5743255 -384.73579669 486.0143255 -384.73579669 475.1343255 C-395.29579669 475.1343255 -405.85579669 475.1343255 -416.73579669 475.1343255 C-416.73579669 411.7743255 -416.73579669 348.4143255 -416.73579669 283.1343255 C-401.55579669 283.1343255 -386.37579669 283.1343255 -370.73579669 283.1343255 C-370.73579669 303.5943255 -370.73579669 324.0543255 -370.73579669 345.1343255 C-360.50579669 345.1343255 -350.27579669 345.1343255 -339.73579669 345.1343255 C-339.73579669 365.9243255 -339.73579669 386.7143255 -339.73579669 408.1343255 C-317.29579669 408.1343255 -294.85579669 408.1343255 -271.73579669 408.1343255 C-271.73579669 397.2443255 -271.73579669 386.3543255 -271.73579669 375.1343255 C-261.17579669 375.1343255 -250.61579669 375.1343255 -239.73579669 375.1343255 C-239.73579669 365.2343255 -239.73579669 355.3343255 -239.73579669 345.1343255 C-218.61579669 345.1343255 -197.49579669 345.1343255 -175.73579669 345.1343255 C-175.73579669 335.2343255 -175.73579669 325.3343255 -175.73579669 315.1343255 C-159.40079669 314.6393255 -159.40079669 314.6393255 -142.73579669 314.1343255 C-142.73579669 304.2343255 -142.73579669 294.3343255 -142.73579669 284.1343255 C-132.83579669 284.1343255 -122.93579669 284.1343255 -112.73579669 284.1343255 C-112.7380173 280.991999 -112.74023791 277.84967249 -112.74252582 274.61212397 C-112.76240527 245.82729741 -112.77734407 217.04247271 -112.78686202 188.25764099 C-112.7881128 184.48858985 -112.78940711 180.71953873 -112.79072833 176.95048761 C-112.7911218 175.82491462 -112.7911218 175.82491462 -112.79152321 174.67660277 C-112.79588005 162.51050631 -112.80376767 150.34441456 -112.81294949 138.17832089 C-112.82228565 125.70410947 -112.82785222 113.22990052 -112.82988518 100.75568575 C-112.83126049 93.05221348 -112.83561148 85.3487545 -112.84371316 77.64528631 C-112.84960084 71.74825475 -112.85025575 65.85123009 -112.84890437 59.9541955 C-112.8491809 57.52771596 -112.85118861 55.10123595 -112.85500216 52.67475939 C-112.85993255 49.37765748 -112.85879741 46.08061377 -112.85605121 42.78351068 C-112.86042047 41.32293791 -112.86042047 41.32293791 -112.864878 39.83285862 C-112.86288695 38.95653528 -112.8608959 38.08021195 -112.85884452 37.17733335 C-112.85922424 36.41523465 -112.85960396 35.65313595 -112.85999519 34.86794335 C-112.73579669 33.1343255 -112.73579669 33.1343255 -111.73579669 32.1343255 C-109.28749243 32.04588757 -106.8675907 32.01903799 -104.41939044 32.03666925 C-103.68833591 32.0380842 -102.95728137 32.03949915 -102.20407367 32.04095697 C-99.86044037 32.04657142 -97.5169013 32.05912629 -95.17329669 32.0718255 C-93.58801161 32.07683865 -92.00272503 32.08140188 -90.41743731 32.08549738 C-86.52352059 32.09654554 -82.62967464 32.11381979 -78.73579669 32.1343255 C-78.74365191 30.77899714 -78.74365191 30.77899714 -78.75166583 29.39628839 C-78.76867355 26.05481061 -78.78123002 22.71337859 -78.79072833 19.37187433 C-78.7957677 17.92362478 -78.80259922 16.47538034 -78.81123614 15.02714777 C-78.82331916 12.94957962 -78.8290288 10.87207853 -78.83345294 8.79448175 C-78.84130816 6.91708307 -78.84130816 6.91708307 -78.84932208 5.00175714 C-78.73579669 2.1343255 -78.73579669 2.1343255 -77.73579669 1.1343255 C-73.80132837 0.74472647 -69.834476 0.70485627 -65.88399005 0.58012629 C-63.9082533 0.51696065 -63.9082533 0.51696065 -61.89260268 0.45251894 C-41.26948517 -0.1503848 -20.6296249 -0.01131749 0 0 Z " fill="#543A13" transform="translate(572.7357966899872,141.86567449569702)"/>
<path d="M0 0 C1.63730853 -0.00134971 3.27461675 -0.00313533 4.91192439 -0.00531223 C9.38816971 -0.01000922 13.86439451 -0.00855137 18.34064079 -0.00603446 C23.21930348 -0.00439359 28.09796193 -0.00854867 32.97662324 -0.01194364 C41.51968665 -0.01708644 50.0627444 -0.01851679 58.60580921 -0.01748753 C71.30991976 -0.01596069 84.01402406 -0.02012854 96.71813339 -0.02536215 C120.72857474 -0.03502738 144.73901397 -0.03784607 168.74945704 -0.03841921 C187.29061365 -0.0388789 205.83176942 -0.04093802 224.37292576 -0.04411983 C229.71157573 -0.04501739 235.05022569 -0.0459073 240.38887566 -0.04679471 C241.05218418 -0.0469053 241.7154927 -0.04701589 242.39890147 -0.04712983 C280.39522449 -0.05345144 318.39154722 -0.0575792 356.38787079 -0.05712128 C357.80900377 -0.0571055 359.23013676 -0.05708976 360.65126975 -0.05707407 C367.0672378 -0.05700069 373.48320586 -0.05691252 379.89917392 -0.05682018 C382.76008539 -0.05677906 385.62099686 -0.05673891 388.48190833 -0.05669887 C389.9138434 -0.05667848 391.34577846 -0.05665746 392.77771353 -0.05663581 C438.05906073 -0.05595554 483.3404001 -0.06327442 528.62174511 -0.07717609 C540.03206823 -0.08067725 551.44239136 -0.08414677 562.85271454 -0.08744049 C563.55533903 -0.08764336 564.25796352 -0.08784624 564.98187966 -0.08805526 C586.64443101 -0.09427219 608.30698172 -0.09803619 629.96953392 -0.09929848 C630.64984827 -0.09933843 631.33016262 -0.09937838 632.03109255 -0.09941954 C646.96701725 -0.10027289 661.90294191 -0.10053398 676.83886663 -0.10024916 C682.84859207 -0.10014068 688.85831751 -0.10009342 694.86804295 -0.10005856 C696.18277423 -0.1000469 697.49750552 -0.10003525 698.85207715 -0.10002324 C720.00605363 -0.09999247 741.1600235 -0.10637724 762.31399801 -0.11499082 C783.57289904 -0.12346812 804.83179041 -0.12445661 826.0906922 -0.1178815 C838.71784252 -0.1141866 851.34496348 -0.11601647 863.9721107 -0.12582384 C872.41145767 -0.13182448 880.85078339 -0.13052742 889.29012939 -0.12335334 C894.09528796 -0.11947263 898.90038971 -0.11869395 903.70554427 -0.12681069 C908.08655236 -0.13414596 912.46745688 -0.13208741 916.84846053 -0.12288683 C918.41413863 -0.12118127 919.97982508 -0.12274155 921.54549463 -0.12818803 C935.70135909 -0.17408954 950.23373308 0.46851963 963.946208 4.25363445 C964.72705761 4.46753826 965.50790722 4.68144207 966.31241894 4.90182781 C981.2254631 9.2350805 992.66474189 17.08407867 1004.321208 27.12863445 C1005.15909863 27.82601727 1005.99698925 28.52340008 1006.8602705 29.2419157 C1024.26129215 43.93828418 1034.9762523 66.75299603 1037.321208 89.12863445 C1037.55796987 92.08771867 1037.72645011 95.04762972 1037.87549376 98.01232564 C1037.93868306 99.25186621 1037.93868306 99.25186621 1038.0031489 100.516448 C1038.40688823 109.00905278 1038.46284328 117.48905066 1038.45263577 125.98957539 C1038.45429097 127.70688742 1038.45637976 129.42419908 1038.45885587 131.14151013 C1038.46436046 135.82123169 1038.46376168 140.50093475 1038.46207828 145.18065849 C1038.46134138 150.28683319 1038.46638355 155.39300291 1038.4706533 160.49917543 C1038.47820068 170.60845267 1038.48042468 180.71772462 1038.48098235 190.82700438 C1038.48189917 202.94272458 1038.48857592 215.05843995 1038.49532918 227.17415805 C1038.51097518 255.74916372 1038.51707257 284.32416813 1038.5217362 312.89917704 C1038.52412294 327.44193361 1038.52782702 341.98468971 1038.5317733 356.52744593 C1038.544432 403.20467756 1038.55521801 449.88190918 1038.55861376 496.55914249 C1038.558776 498.78761715 1038.55894156 501.01609181 1038.55910814 503.24456647 C1038.55944193 507.71355874 1038.55977241 512.182551 1038.5601027 516.65154326 C1038.56048959 521.88327868 1038.5608792 527.11501411 1038.56127377 532.34674953 C1038.56138619 533.84409394 1038.5614976 535.34143834 1038.56160802 536.83878275 C1038.56515902 584.94976909 1038.58024727 633.0607405 1038.60354576 681.17172114 C1038.62029117 715.76467546 1038.63576359 750.35762695 1038.64028072 784.95058537 C1038.64042095 786.01798609 1038.64042095 786.01798609 1038.64056401 787.10695048 C1038.64258316 802.72907747 1038.64373912 818.35120443 1038.6440926 833.97333155 C1038.64422877 839.56319999 1038.64443776 845.15306843 1038.64468585 850.74293686 C1038.64474741 852.13348384 1038.64480573 853.52403082 1038.6448608 854.91457779 C1038.64577981 877.05265001 1038.65573794 899.19070662 1038.67031829 921.32877371 C1038.68535164 944.24623467 1038.68951695 967.16367725 1038.68122533 990.08114363 C1038.67676813 1003.28842389 1038.68063351 1016.49564017 1038.69646384 1029.70291202 C1038.7062127 1038.52753795 1038.70503645 1047.35211903 1038.69502761 1056.17674454 C1038.68963519 1061.20272629 1038.6889269 1066.22858516 1038.70153633 1071.25455673 C1038.71293127 1075.8347339 1038.71028982 1080.41468896 1038.69686925 1084.99485868 C1038.6944514 1086.6337334 1038.69696156 1088.27262555 1038.70526573 1089.91148101 C1038.82441013 1115.09873848 1032.73389011 1142.17015595 1014.649333 1160.80832195 C1013.88105175 1161.57402508 1013.1127705 1162.3397282 1012.321208 1163.12863445 C1011.57355175 1163.93558758 1010.8258955 1164.7425407 1010.055583 1165.57394695 C992.00960145 1184.63576191 968.82796127 1196.06953235 942.44976076 1197.31081346 C938.1718723 1197.40714796 933.89470474 1197.39413569 929.61601925 1197.38031673 C927.96353661 1197.38240726 926.31105488 1197.38537291 924.65857518 1197.38912547 C920.13546132 1197.39687838 915.6124334 1197.3922722 911.08932101 1197.38556956 C906.1614935 1197.38048066 901.23367881 1197.38702216 896.30585313 1197.39205623 C887.67467704 1197.39927116 879.04352598 1197.39906564 870.41234875 1197.39396191 C857.57677732 1197.38639275 844.74122698 1197.39026673 831.90565569 1197.39637852 C808.97709881 1197.40690974 786.04855307 1197.40599706 763.11999513 1197.4002207 C743.04728674 1197.39518873 722.97458247 1197.39387328 702.90187359 1197.39626598 C701.55671935 1197.39642094 700.21156511 1197.39657526 698.86641087 1197.39672892 C693.46040429 1197.39734989 688.05439772 1197.39798722 682.64839115 1197.39864845 C667.53601008 1197.4004824 652.423629 1197.40162366 637.31124783 1197.40222073 C636.6230728 1197.40224802 635.93489777 1197.40227531 635.22586895 1197.40230343 C613.30008144 1197.40312189 591.37429533 1197.40086884 569.44850826 1197.39652157 C568.73747666 1197.39638107 568.02644505 1197.39624057 567.29386703 1197.39609582 C555.74795592 1197.39380605 544.20204484 1197.39136706 532.65613377 1197.38891547 C486.89702699 1197.37920961 441.13793191 1197.37964802 395.37882519 1197.38937664 C383.85296028 1197.3918192 372.32709537 1197.39424138 360.80123043 1197.39652157 C359.73656741 1197.39673291 359.73656741 1197.39673291 358.65039605 1197.39694853 C336.75782578 1197.40126453 314.86525649 1197.40308873 292.97268581 1197.40222073 C292.28485736 1197.40219356 291.5970289 1197.40216639 290.88835716 1197.4021384 C275.78525842 1197.40151327 260.6821598 1197.40024567 245.57906117 1197.39839972 C240.17416416 1197.39774149 234.76926716 1197.39711532 229.36437015 1197.3964983 C228.0198609 1197.39634352 226.67535166 1197.39618606 225.33084241 1197.39602591 C204.61094154 1197.39356459 183.89104571 1197.39599725 163.17114544 1197.40122509 C140.35788557 1197.40695245 117.54463858 1197.40549543 94.73138031 1197.3946636 C81.97483323 1197.38880596 69.21831407 1197.38838597 56.46176773 1197.39595595 C47.92592005 1197.40046099 39.39009462 1197.39761316 30.85425023 1197.38894641 C26.00052081 1197.38421771 21.1468466 1197.38250128 16.29311904 1197.38975838 C-16.72878946 1197.43526709 -16.72878946 1197.43526709 -32.5931406 1196.25729275 C-33.60661543 1196.18242123 -34.62009025 1196.10754971 -35.66427644 1196.03040935 C-56.36423736 1194.22822275 -78.9630481 1183.45368384 -92.8116045 1167.7028532 C-95.1607636 1164.88784391 -97.42895597 1162.02350119 -99.678792 1159.12863445 C-100.37359669 1158.26109539 -101.06840137 1157.39355633 -101.78426075 1156.4997282 C-117.17683106 1136.52213695 -120.99988151 1112.71176097 -120.94329834 1088.07821274 C-120.94679616 1086.3880177 -120.95116433 1084.69782428 -120.95631549 1083.00763348 C-120.96791611 1078.37978585 -120.96722786 1073.7520108 -120.96446495 1069.12415251 C-120.96365764 1064.08270265 -120.97441725 1059.04127501 -120.98368484 1053.99983543 C-120.99832889 1045.16903215 -121.00560987 1036.33824673 -121.00803661 1027.50743198 C-121.01167239 1014.37473533 -121.02669588 1001.24206881 -121.04399067 988.10938393 C-121.07275264 966.00878105 -121.09215375 943.90817731 -121.1060133 921.80756092 C-121.11976288 899.90630426 -121.13718899 878.00505602 -121.15966702 856.1038065 C-121.1610753 854.72717715 -121.16248338 853.35054781 -121.16389123 851.97391847 C-121.16955626 846.44134826 -121.17524963 840.90877809 -121.18097789 835.37620796 C-121.19698377 819.90961238 -121.21232702 804.44301618 -121.22718239 788.97641945 C-121.22785917 788.27210077 -121.22853595 787.5677821 -121.22923325 786.84212043 C-121.25075331 764.40091972 -121.26942294 741.9597176 -121.28601837 719.51851273 C-121.28655663 718.79074582 -121.28709488 718.06297892 -121.28764945 717.31315847 C-121.29637684 705.49559351 -121.30492011 693.67802842 -121.31345394 681.86046332 C-121.34727789 635.03700331 -121.38837993 588.2135562 -121.43684864 541.39010906 C-121.43837818 539.91130416 -121.43990754 538.43249925 -121.44143672 536.95369435 C-121.44372843 534.73758808 -121.44602024 532.52148182 -121.44831258 530.30537555 C-121.45592842 522.94276105 -121.46353688 515.58014655 -121.47112659 508.21753202 C-121.47263929 506.75013484 -121.47415265 505.28273766 -121.47566668 503.81534048 C-121.51616885 464.54740389 -121.55161716 425.27946292 -121.58518821 386.01151985 C-121.58637375 384.62568135 -121.5875593 383.23984286 -121.58874485 381.85400436 C-121.58992778 380.47073854 -121.59111062 379.08747272 -121.59229336 377.7042069 C-121.59287803 377.0204386 -121.59346269 376.33667031 -121.59406508 375.63218177 C-121.59700781 372.18945516 -121.5999449 368.74672854 -121.60287208 365.30400192 C-121.61569067 350.24093992 -121.62908561 335.17787878 -121.64411998 320.11481881 C-121.64479526 319.43773707 -121.64547054 318.76065533 -121.64616628 318.06305596 C-121.64956775 314.65466012 -121.65297708 311.24626429 -121.65638738 307.83786845 C-121.68108951 283.13338443 -121.70226247 258.42890042 -121.71748956 233.72440846 C-121.72562609 220.67341972 -121.73650499 207.62244045 -121.75147788 194.57145772 C-121.76121094 185.83296797 -121.76714261 177.09448074 -121.7700917 168.35598609 C-121.77186681 163.39062449 -121.7751598 158.42527831 -121.78307792 153.45992238 C-121.81016255 135.83189719 -121.79318849 118.21541732 -121.23140144 100.59478951 C-121.19201561 99.34518008 -121.15262977 98.09557065 -121.11205043 96.80809427 C-120.34317922 75.46181677 -114.78953353 54.77239605 -99.0616045 39.4606657 C-97.03369542 37.47597436 -95.68132448 35.78402205 -94.241292 33.37863445 C-91.11167134 28.80960639 -86.31746975 26.33274841 -81.70467091 23.44211102 C-79.34531868 21.91242736 -77.05161643 20.30282403 -74.75301075 18.68332195 C-64.72457112 11.67382117 -55.71226082 5.8308871 -43.678792 3.12863445 C-42.66945606 2.90175945 -41.66012012 2.67488445 -40.62019825 2.44113445 C-27.28232738 -0.10953408 -13.52931575 -0.01950897 0 0 Z M-65.32039356 57.84738445 C-68.64076442 61.96953048 -71.23032234 66.44941797 -73.678792 71.12863445 C-74.29367481 72.27203289 -74.90855762 73.41543133 -75.54207325 74.5934782 C-80.9076423 85.36303326 -81.98102042 95.70494125 -81.92488766 107.61734581 C-81.92719535 108.83384853 -81.92950303 110.05035126 -81.93188065 111.3037177 C-81.93624584 114.66430191 -81.93170383 118.02465531 -81.92332439 121.38521726 C-81.91642174 125.04718133 -81.92120407 128.7091337 -81.92447937 132.37110025 C-81.92861753 138.78360181 -81.92535524 145.19606619 -81.91720295 151.60856342 C-81.90511462 161.14365124 -81.90453304 170.67871569 -81.90628693 180.21380977 C-81.90891267 196.2546663 -81.90223971 212.29550634 -81.89025211 228.33635807 C-81.87841474 244.21692454 -81.87071955 260.09748415 -81.86854649 275.978055 C-81.86840901 276.96576412 -81.86827153 277.95347324 -81.86812988 278.97111293 C-81.86745321 283.98726641 -81.86685044 289.00341988 -81.86627613 294.01957337 C-81.86207623 329.54136468 -81.84860407 365.06314702 -81.82967091 400.58493328 C-81.81129977 435.09209425 -81.79713365 469.59925277 -81.78865528 504.10641766 C-81.78839223 505.17023273 -81.78812918 506.23404781 -81.78785815 507.33009971 C-81.78522109 518.01344802 -81.78266947 528.69679635 -81.78018043 539.38014469 C-81.77510812 561.1430132 -81.76946562 582.90588154 -81.76347828 604.66874981 C-81.7632037 605.66935322 -81.76292912 606.66995663 -81.76264622 607.70088136 C-81.75420068 638.36814026 -81.74333859 669.03539764 -81.73009205 699.70265484 C-81.72971693 700.57326732 -81.72934182 701.4438798 -81.72895533 702.34087447 C-81.71372531 737.60346183 -81.6959371 772.86604799 -81.678792 808.12863445 C-0.168792 808.12863445 81.341208 808.12863445 165.321208 808.12863445 C165.321208 817.69863445 165.321208 827.26863445 165.321208 837.12863445 C84.141208 837.12863445 2.961208 837.12863445 -80.678792 837.12863445 C-80.82453523 884.72626865 -80.82453523 884.72626865 -80.92293262 932.32394695 C-80.93272094 938.75135645 -80.94282306 945.17876534 -80.9534502 951.60617352 C-80.95476895 952.41166598 -80.95608769 953.21715845 -80.9574464 954.04705977 C-80.97915114 967.02531566 -81.01854695 980.00345998 -81.06455598 992.98164988 C-81.11143043 1006.3158665 -81.13911053 1019.65002501 -81.14923447 1032.98432064 C-81.15607096 1041.20226457 -81.17760721 1049.41989321 -81.21837433 1057.63774002 C-81.24494867 1063.28467983 -81.25276006 1068.93145834 -81.24629889 1074.57845604 C-81.24311855 1077.82920991 -81.25054307 1081.07930556 -81.27481937 1084.32998562 C-81.40576684 1102.77859702 -80.08670419 1118.26895874 -69.678792 1134.12863445 C-69.23664356 1134.80925945 -68.79449512 1135.48988445 -68.33894825 1136.19113445 C-64.56704177 1141.15364271 -59.61386582 1144.50236178 -54.491292 1147.94113445 C-53.80897511 1148.40970867 -53.12665821 1148.87828289 -52.42366505 1149.36105633 C-41.52487982 1156.36425111 -29.59423769 1156.56647855 -17.02556133 1156.50895119 C-15.35422719 1156.51238913 -13.68289533 1156.5171389 -12.01156819 1156.52307215 C-7.42681524 1156.53555405 -2.84224893 1156.52944429 1.74250477 1156.52023848 C6.73352741 1156.51352084 11.72451824 1156.52419875 16.71553409 1156.53263432 C25.46052263 1156.54500434 34.20545752 1156.54621219 42.95045185 1156.54008389 C55.95486335 1156.53099503 68.9592252 1156.53902316 81.96363289 1156.55037513 C105.86571424 1156.57062177 129.76777619 1156.57210174 153.66986319 1156.5667245 C157.05525284 1156.56596876 160.4406425 1156.56524114 163.82603216 1156.56454253 C164.49848451 1156.56440344 165.17093685 1156.56426435 165.86376655 1156.56412104 C180.77491636 1156.56116713 195.6860632 1156.56418318 210.59721247 1156.56843882 C212.63877739 1156.56902098 214.68034231 1156.56958982 216.72190724 1156.57015445 C222.19488278 1156.57166945 227.66785831 1156.57319636 233.14083384 1156.57474746 C271.34282586 1156.58550273 309.54481512 1156.59020763 347.74680805 1156.5822773 C348.46675772 1156.58212899 349.18670739 1156.58198069 349.92847372 1156.58182789 C357.95642569 1156.58016893 365.98437765 1156.57841935 374.01232959 1156.57663488 C374.73711591 1156.57647385 375.46190222 1156.57631283 376.20865176 1156.57614692 C380.60528401 1156.57516945 380.60528401 1156.57516945 385.00191627 1156.57418573 C431.35380391 1156.56379624 477.70565357 1156.57155746 524.05753613 1156.59518719 C535.73567288 1156.60113079 547.41380966 1156.60702243 559.0919466 1156.61259651 C559.8110536 1156.61294028 560.53016059 1156.61328405 561.2710587 1156.61363824 C583.44154262 1156.62416924 605.61202338 1156.62975974 627.7825098 1156.63015366 C628.47877605 1156.63016644 629.1750423 1156.63017922 629.89240752 1156.63019239 C645.17859753 1156.63042071 660.46478726 1156.62941436 675.75097712 1156.62728334 C681.22092341 1156.6265286 686.69086971 1156.62585039 692.16081602 1156.62520319 C693.52155373 1156.62504049 694.88229145 1156.62487283 696.24302917 1156.62470017 C717.90596305 1156.62198136 739.56887384 1156.63052315 761.23180276 1156.64455427 C783.66384572 1156.65897699 806.09584637 1156.65849009 828.52788801 1156.64117955 C841.45499311 1156.63161451 854.38198574 1156.63305565 867.30908333 1156.65041424 C875.94848258 1156.66090422 884.58779618 1156.65680256 893.227187 1156.64093421 C898.14670249 1156.63230363 903.06599763 1156.62987489 907.98550178 1156.64520352 C912.47036812 1156.65904561 916.95482677 1156.6541301 921.43966976 1156.63491834 C923.04291116 1156.63121524 924.64618625 1156.63404677 926.24939699 1156.64463142 C946.71103432 1156.77029782 966.97412419 1152.81660302 982.2196455 1138.32394695 C991.43667868 1128.62392513 995.98252746 1115.30420482 997.98643017 1102.28811932 C998.17608416 1101.05999047 998.17608416 1101.05999047 998.36956954 1099.80705094 C999.66554389 1090.72864582 999.72858014 1081.73000847 999.67765331 1072.57687664 C999.67844709 1070.70274542 999.68055318 1068.82861438 999.68384838 1066.95448589 C999.68893127 1061.91274218 999.67553274 1056.87120685 999.65832138 1051.82949638 C999.64306319 1046.47545931 999.64445355 1041.12142253 999.64365673 1035.76736736 C999.63997437 1026.74306072 999.62508852 1017.71883055 999.602458 1008.69455242 C999.57392346 997.29654598 999.56325834 985.89860194 999.5587759 974.50056362 C999.55470905 964.51695103 999.54220171 954.53335073 999.52842903 944.54974747 C999.52329774 940.55756867 999.51971821 936.56538911 999.51650763 932.57320833 C999.46913841 901.07601625 998.89394075 869.62893571 998.321208 838.12863445 C825.731208 838.12863445 653.141208 838.12863445 475.321208 838.12863445 C475.321208 828.22863445 475.321208 818.32863445 475.321208 808.12863445 C648.241208 808.12863445 821.161208 808.12863445 999.321208 808.12863445 C999.3499085 685.24761851 999.3499085 685.24761851 999.36937296 562.36660194 C999.3714142 544.57620751 999.37350214 526.78581308 999.37573399 508.99541867 C999.37600383 506.84349891 999.37627221 504.69157914 999.37653909 502.53965938 C999.38080688 468.22614892 999.38831136 433.91264011 999.39750522 399.59913064 C999.40693618 364.33671693 999.41309307 329.07430413 999.41512299 293.81188918 C999.41541115 288.83274269 999.41573679 283.85359621 999.41608524 278.87444973 C999.41618638 277.40448054 999.41618638 277.40448054 999.41628956 275.904815 C999.41747184 260.12194138 999.42211145 244.33907058 999.42804003 228.55619811 C999.43392482 212.69388691 999.43617659 196.8315785 999.43470938 180.96926625 C999.43394809 171.54210953 999.43598292 162.11496302 999.44200554 152.68780814 C999.44575381 146.39116713 999.44587278 140.09453282 999.44303981 133.79789135 C999.44152936 130.20973282 999.44159776 126.62159361 999.44609118 123.03343715 C999.45089724 119.16622559 999.44794785 115.29904177 999.44425583 111.4318285 C999.44688284 110.32061772 999.44950986 109.20940694 999.45221648 108.0645231 C999.41258481 89.74559032 995.23193282 73.91421933 982.399333 60.0700407 C963.34207904 42.26655345 943.00995024 39.96422795 917.93512344 40 C916.29297658 39.99865136 914.65083004 39.99686634 913.00868407 39.99468777 C908.50505298 39.9899764 904.00144221 39.99145337 899.49781015 39.99396554 C894.59474979 39.99560265 889.6916937 39.99145443 884.78863472 39.98805636 C876.19823183 39.98290756 867.60783458 39.98148426 859.01743031 39.98251247 C846.2431462 39.98403774 833.46886833 39.97987494 820.69458544 39.97463785 C796.55324579 39.96496707 772.41190825 39.96215373 748.27056689 39.96158079 C745.60919448 39.96151519 742.94782208 39.96144738 740.28644967 39.96137738 C739.6260065 39.96136038 738.96556333 39.96134337 738.28510673 39.96132585 C723.64112197 39.96091716 708.9971376 39.95872652 694.35315305 39.95622154 C688.32087615 39.95519317 682.28859924 39.95420313 676.25632232 39.95320529 C675.25651983 39.9530394 675.25651983 39.9530394 674.2365193 39.95287017 C636.05010389 39.94654765 597.86368876 39.9424209 559.6772728 39.94287872 C558.24870993 39.9428945 556.82014706 39.94291024 555.3915842 39.94292593 C548.94190763 39.94299931 542.49223106 39.94308748 536.0425545 39.94317982 C533.16654391 39.94322094 530.29053332 39.94326109 527.41452273 39.94330113 C525.97502956 39.94332152 524.53553639 39.94334254 523.09604322 39.94336419 C477.56977647 39.94404455 432.04351749 39.93672442 386.51725292 39.92282391 C375.04453089 39.91932284 363.57180885 39.91585337 352.09908676 39.91255951 C351.03943341 39.9122552 351.03943341 39.9122552 349.95837293 39.91194474 C328.18423968 39.90572945 306.41010707 39.90196413 284.63597298 39.90070152 C283.6105023 39.9006416 283.6105023 39.9006416 282.56431505 39.90058046 C267.5564698 39.89972718 252.5486246 39.89946599 237.54077933 39.89975084 C232.17074274 39.89984732 226.80070616 39.89989936 221.43066957 39.89992957 C220.09476594 39.89993748 218.75886231 39.89994768 217.42295867 39.89996019 C195.48473927 39.90014191 173.54652923 39.89388801 151.60831206 39.88500918 C130.23823087 39.87653903 108.86815928 39.87553777 87.49807734 39.8821185 C74.79879398 39.88581815 62.0995398 39.88396936 49.40025952 39.87417616 C40.91910624 39.86818774 32.43797414 39.86945894 23.95682184 39.87664666 C19.12363154 39.88053772 14.29049782 39.88127631 9.45731146 39.87318931 C5.05668402 39.86589052 0.65616007 39.86787041 -3.74446283 39.87711317 C-5.32285722 39.87882834 -6.9012598 39.8772263 -8.47964584 39.87181197 C-28.11802572 39.80898178 -50.91032588 42.7601036 -65.32039356 57.84738445 Z " fill="#533A13" transform="translate(121.6787919998169,-0.12863445281982422)"/>
<path d="M0 0 C54.12 0 108.24 0 164 0 C163.505 77.715 163.505 77.715 163 157 C154.09 157 145.18 157 136 157 C136 165.25 136 173.5 136 182 C91.12 182 46.24 182 0 182 C0 172.1 0 162.2 0 152 C-2.87589844 152.01160156 -5.75179687 152.02320313 -8.71484375 152.03515625 C-11.48819875 152.04294625 -14.26155254 152.04902333 -17.03491211 152.05493164 C-18.96818585 152.05997256 -20.90145576 152.06680519 -22.8347168 152.07543945 C-25.60726872 152.08751565 -28.37977041 152.09323057 -31.15234375 152.09765625 C-32.45702858 152.10539818 -32.45702858 152.10539818 -33.78807068 152.11329651 C-35.85905814 152.11349185 -37.92994324 152.06208168 -40 152 C-41 151 -41 151 -41.11352539 148.13256836 C-41.10828857 146.88096924 -41.10305176 145.62937012 -41.09765625 144.33984375 C-41.09515869 143.12417725 -41.09266113 141.90851074 -41.09008789 140.65600586 C-41.08098389 139.09889893 -41.07187988 137.54179199 -41.0625 135.9375 C-41.041875 131.008125 -41.02125 126.07875 -41 121 C-51.56 121 -62.12 121 -73 121 C-73 100.87 -73 80.74 -73 60 C-62.44 60 -51.88 60 -41 60 C-41 50.43 -41 40.86 -41 31 C-38.44765625 30.93941406 -35.8953125 30.87882812 -33.265625 30.81640625 C-30.79001021 30.7545741 -28.31443922 30.69120413 -25.83886719 30.62768555 C-24.12015695 30.58440984 -22.40140576 30.54272959 -20.68261719 30.50268555 C-18.210161 30.44480435 -15.73790953 30.38116164 -13.265625 30.31640625 C-12.49881409 30.29969376 -11.73200317 30.28298126 -10.94195557 30.26576233 C-7.42106065 30.16828781 -4.43966351 29.85991588 -1 29 C-0.67 19.43 -0.34 9.86 0 0 Z " fill="#543A13" transform="translate(855,457)"/>
<path d="M0 0 C1.46687256 0.01450195 1.46687256 0.01450195 2.96337891 0.02929688 C22.00878209 0.34613938 36.19487931 6.22834407 50.25 19.25 C50.97703125 19.90871094 51.7040625 20.56742188 52.453125 21.24609375 C69.90173028 37.79562968 76.71092675 60.58816222 77.48828125 84.02734375 C77.96272162 110.39388878 72.55177518 133.67413214 55.25 154.25 C37.73457603 169.85861265 16.86647161 175.77878213 -6.14794922 174.47314453 C-22.56647394 173.06513819 -36.25045598 165.90788542 -47.75 154.25 C-48.79607422 153.21939453 -48.79607422 153.21939453 -49.86328125 152.16796875 C-59.23557531 142.35890759 -64.9643895 130.15549035 -68.75 117.25 C-69.0696875 116.17234375 -69.389375 115.0946875 -69.71875 113.984375 C-74.02137821 96.53482725 -73.31555018 76.57924047 -68.75 59.25 C-68.36714844 57.63931641 -68.36714844 57.63931641 -67.9765625 55.99609375 C-66.21572718 49.41315436 -63.55630249 43.46714109 -60.4375 37.4375 C-60.08284668 36.74406494 -59.72819336 36.05062988 -59.36279297 35.33618164 C-54.74566972 26.76839794 -48.34111433 20.44555505 -40.625 14.625 C-39.88580322 14.06449951 -39.14660645 13.50399902 -38.38500977 12.92651367 C-26.57891364 4.20403286 -14.69328592 -0.15186859 0 0 Z " fill="#543A13" transform="translate(313.75,931.75)"/>
<path d="M0 0 C1.14124832 -0.0004985 2.28249664 -0.00099701 3.45832825 -0.00151062 C5.87482441 0.00082565 8.2913232 0.01052771 10.70776367 0.02709961 C14.3373088 0.05041369 17.96610348 0.04769086 21.59570312 0.04101562 C72.52431061 0.10036662 72.52431061 0.10036662 92.14453125 18.05078125 C92.82515625 18.81390625 93.50578125 19.57703125 94.20703125 20.36328125 C94.86703125 21.06453125 95.52703125 21.76578125 96.20703125 22.48828125 C105.41485314 35.72452522 107.17029642 51.96114403 104.51953125 67.61328125 C100.8495849 82.8576738 92.91869452 93.99097184 79.70703125 102.30078125 C78.54485807 102.99585021 77.37988702 103.68639374 76.20703125 104.36328125 C77.61215479 112.68711091 80.87638287 121.60814636 87.20703125 127.36328125 C92.05625684 130.2728166 97.02202049 131.57844057 102.51953125 132.73828125 C106.61749775 133.70158977 107.88426095 134.01745592 110.83203125 137.17578125 C111.28578125 138.22765625 111.73953125 139.27953125 112.20703125 140.36328125 C112.82578125 141.72453125 112.82578125 141.72453125 113.45703125 143.11328125 C114.77096636 148.80700004 114.9722011 154.11028113 113.08203125 159.67578125 C108.33847177 166.47488317 102.32333487 169.35413447 94.375 170.921875 C82.49479099 172.57719389 71.8863164 171.64584516 61.95703125 164.55078125 C60.68743059 163.51178153 59.43679632 162.44913765 58.20703125 161.36328125 C57.60117187 160.83863281 56.9953125 160.31398438 56.37109375 159.7734375 C47.94644605 151.9558059 43.55776359 141.22205888 38.89453125 130.92578125 C38.35763672 129.75595703 37.82074219 128.58613281 37.26757812 127.38085938 C33.37145769 118.85656056 33.37145769 118.85656056 32.20703125 115.36328125 C28.79047101 115.19650843 28.79047101 115.19650843 25.20703125 115.36328125 C23.04177061 117.11737539 23.04177061 117.11737539 22.97998047 119.23382568 C22.99569092 120.37250092 22.99569092 120.37250092 23.01171875 121.53417969 C23.0183252 122.39557556 23.02493164 123.25697144 23.03173828 124.14447021 C23.04833496 125.07777161 23.06493164 126.011073 23.08203125 126.97265625 C23.08960449 127.93222229 23.09717773 128.89178833 23.10498047 129.88043213 C23.13772175 133.99439142 23.1937659 138.10795705 23.24804688 142.22167969 C23.28429859 145.2219864 23.30844485 148.22222746 23.33203125 151.22265625 C23.34862793 152.14786072 23.36522461 153.07306519 23.38232422 154.02630615 C23.41856433 158.82071868 23.34909208 162.95326031 21.20703125 167.36328125 C17.42712952 168.62324849 13.865488 168.54506187 9.92578125 168.56640625 C8.71094055 168.57495636 8.71094055 168.57495636 7.47155762 168.5836792 C5.76018578 168.59311858 4.04879586 168.59965896 2.33740234 168.60351562 C-0.28319757 168.61324497 -2.90302083 168.64428704 -5.5234375 168.67578125 C-7.18619326 168.68230924 -8.84895462 168.68756051 -10.51171875 168.69140625 C-11.29615356 168.70375305 -12.08058838 168.71609985 -12.88879395 168.7288208 C-18.19223734 168.70704345 -18.19223734 168.70704345 -20.68554688 167.28027344 C-23.64910285 162.15023782 -24.04277521 156.87378562 -24.0234375 151.06640625 C-24.02297928 150.39212585 -24.02252106 149.71784546 -24.02204895 149.02313232 C-24.01904748 147.60459623 -24.01122498 146.1860628 -23.9987793 144.76757812 C-23.98063371 142.63268911 -23.97826944 140.49823911 -23.97851562 138.36328125 C-23.95823327 132.63217434 -23.87877411 126.99867195 -23.29374695 121.29556274 C-22.77041935 115.6428355 -22.64145893 110.04558349 -22.63525391 104.37158203 C-22.63017319 103.33437515 -22.62509247 102.29716827 -22.61985779 101.22853088 C-22.60923599 98.99806662 -22.60058441 96.76759224 -22.59373856 94.53711319 C-22.5818552 91.00628502 -22.56238432 87.47557405 -22.5406189 83.9447937 C-22.47927955 73.91375601 -22.42482215 63.88273619 -22.39160156 53.8515625 C-22.37068354 47.69853049 -22.33542076 41.54572257 -22.29084396 35.39281845 C-22.27668065 33.05246484 -22.26796079 30.71207171 -22.26478958 28.3716774 C-22.25989252 25.10708241 -22.23677066 21.84308684 -22.20947266 18.57861328 C-22.21247879 17.61334213 -22.21548492 16.64807098 -22.21858215 15.65354919 C-22.15788516 10.7767128 -22.06971621 7.26249707 -18.79296875 3.36328125 C-12.76780679 -0.29170115 -6.90197172 -0.05873103 0 0 Z " fill="#543A13" transform="translate(642.79296875,934.63671875)"/>
<path d="M0 0 C1.66869141 -0.01836914 1.66869141 -0.01836914 3.37109375 -0.03710938 C21.83925457 -0.06935878 21.83925457 -0.06935878 28.3125 4.0625 C34.57917796 13.55746661 37.74721497 25.34757503 41.64819336 36.00390625 C42.34308738 37.89841939 43.04839101 39.789104 43.75390625 41.6796875 C44.1619751 42.78683105 44.57004395 43.89397461 44.99047852 45.03466797 C46.48457962 48.43703469 48.23316553 51.16256107 50.375 54.1875 C53.40188158 53.54695067 53.40188158 53.54695067 54.29467773 51.59619141 C54.54677002 50.91733887 54.7988623 50.23848633 55.05859375 49.5390625 C55.48724731 48.4102063 55.48724731 48.4102063 55.92456055 47.25854492 C56.21758057 46.4513501 56.51060059 45.64415527 56.8125 44.8125 C57.27426636 43.57947144 57.27426636 43.57947144 57.74536133 42.3215332 C58.63184622 39.94706181 59.50378218 37.56760409 60.375 35.1875 C60.77203125 34.13691406 61.1690625 33.08632813 61.578125 32.00390625 C63.37837573 27.19609378 64.92694161 22.36313491 66.375 17.4375 C69.81193108 6.1772044 69.81193108 6.1772044 74.50097656 2.53710938 C78.16288698 0.81751706 81.45463904 0.71983951 85.421875 0.71875 C86.19251282 0.71113647 86.96315063 0.70352295 87.75714111 0.69567871 C89.38428522 0.68490319 91.01149834 0.68201425 92.63867188 0.68652344 C95.10406783 0.68749178 97.56630611 0.64593149 100.03125 0.6015625 C108.52298497 0.53951298 115.45498804 0.576129 122.375 6.1875 C123.79855096 18.71474848 114.73180498 29.76865433 107.8059082 39.3605957 C103.25160156 45.74120667 99.22141693 52.3330945 95.3125 59.125 C94.43368164 60.63610352 94.43368164 60.63610352 93.53710938 62.17773438 C92.37406267 64.18499035 91.21943066 66.19714817 90.07373047 68.21435547 C88.9297068 70.21664352 87.76143011 72.20524556 86.57080078 74.18017578 C86.01247559 75.13263184 85.45415039 76.08508789 84.87890625 77.06640625 C84.12009155 78.33013062 84.12009155 78.33013062 83.34594727 79.61938477 C82.08889943 82.94422415 82.42721941 84.78544603 83.375 88.1875 C84.57985996 90.70887733 84.57985996 90.70887733 86.18359375 93.09375 C86.76061035 93.99528809 87.33762695 94.89682617 87.93212891 95.82568359 C88.55265137 96.77008301 89.17317383 97.71448242 89.8125 98.6875 C90.44849121 99.66928223 91.08448242 100.65106445 91.73974609 101.66259766 C99.0921949 112.94253362 106.99875645 123.73166213 115.10131836 134.47851562 C128.00566089 151.61956934 128.00566089 151.61956934 127.375 159.1875 C125.49383041 163.44057908 124.05233685 164.87230364 119.82421875 166.83984375 C113.07802641 168.93932349 106.00984105 168.59788866 99.01708984 168.52368164 C96.61652445 168.49991609 94.21706091 168.50315832 91.81640625 168.50976562 C90.27863926 168.50419285 88.74087689 168.49708549 87.203125 168.48828125 C86.49158264 168.48919266 85.78004028 168.49010406 85.04693604 168.49104309 C79.15868487 168.40743378 75.93752848 167.76810082 71.75756836 163.53979492 C69.16141229 160.18781759 67.65783877 156.52271686 66.25390625 152.55078125 C65.85304054 151.4706501 65.85304054 151.4706501 65.44407654 150.36869812 C64.59699155 148.08318617 63.76583094 145.79236898 62.9375 143.5 C59.36135652 133.65482759 55.80260534 124.20656073 50.375 115.1875 C48.10840082 117.25663087 46.81001711 119.02504356 45.64501953 121.85766602 C45.34105255 122.58595108 45.03708557 123.31423615 44.72390747 124.06459045 C44.40509613 124.84893967 44.08628479 125.63328888 43.7578125 126.44140625 C43.41877899 127.25689438 43.07974548 128.07238251 42.73043823 128.9125824 C41.64657921 131.52220297 40.57266848 134.13576194 39.5 136.75 C36.82412017 143.24310432 34.12628859 149.72595559 31.375 156.1875 C30.90932617 157.2894873 30.44365234 158.39147461 29.96386719 159.52685547 C29.56071289 160.4138916 29.15755859 161.30092773 28.7421875 162.21484375 C28.26048096 163.29173462 28.26048096 163.29173462 27.76904297 164.39038086 C25.68853932 167.07244519 23.51562688 167.9631402 20.375 169.1875 C17.11450195 169.57568359 17.11450195 169.57568359 13.61328125 169.5859375 C12.32873047 169.58980469 11.04417969 169.59367187 9.72070312 169.59765625 C9.0569165 169.59137207 8.39312988 169.58508789 7.70922852 169.57861328 C5.71050262 169.56268333 3.71160182 169.57997723 1.71289062 169.59765625 C-7.30716512 169.57063661 -16.23817781 169.28408037 -23.8125 163.9375 C-26.25836138 160.2265379 -26.42912437 158.57363294 -25.625 154.1875 C-24.00247571 150.90850739 -21.83063304 148.09679582 -19.625 145.1875 C-18.71844542 143.98590682 -17.81222072 142.78406471 -16.90625 141.58203125 C-15.37217856 139.54767535 -13.83792165 137.51348389 -12.30078125 135.48144531 C-7.10559712 128.57698147 -2.29078864 121.45782134 2.375 114.1875 C2.74109375 113.61902344 3.1071875 113.05054688 3.484375 112.46484375 C13.2780731 98.33126001 13.2780731 98.33126001 17.375 82.1875 C15.8125583 78.02331213 13.71050416 74.20045504 11.5625 70.3125 C10.96590576 69.20422852 10.36931152 68.09595703 9.75463867 66.95410156 C7.98373793 63.68569399 6.18481437 60.4344897 4.375 57.1875 C3.8996582 56.32543945 3.42431641 55.46337891 2.93457031 54.57519531 C-1.87402683 45.89951931 -7.11855825 37.95465042 -13.29296875 30.1953125 C-24.69907617 15.48391767 -24.69907617 15.48391767 -24.5625 7.5625 C-23.625 4.1875 -23.625 4.1875 -21.4375 2.3125 C-14.56459796 -0.43666082 -7.28108462 0.00413228 0 0 Z " fill="#543A13" transform="translate(920.625,934.8125)"/>
<path d="M0 0 C1.18934143 -0.01283524 2.37868286 -0.02567047 3.60406494 -0.03889465 C4.88940125 -0.04628159 6.17473755 -0.05366852 7.49902344 -0.0612793 C8.4895937 -0.06739259 8.4895937 -0.06739259 9.50017548 -0.07362938 C13.00694968 -0.09447809 16.5136851 -0.10877559 20.02050781 -0.11816406 C22.8911706 -0.12696185 25.76133948 -0.14768707 28.63183594 -0.1796875 C72.98533625 -0.66331415 72.98533625 -0.66331415 89.54589844 15.05200195 C100.34462198 26.83035653 104.35624184 39.38171341 105.10839844 55.17700195 C105.17414063 56.33071289 105.23988281 57.48442383 105.30761719 58.6730957 C105.81426908 74.34436284 100.52220432 86.61619412 89.93823242 97.91479492 C83.34700255 104.69947291 77.09793732 109.84175275 68.10839844 113.17700195 C67.34269531 113.48637695 66.57699219 113.79575195 65.78808594 114.11450195 C52.63488993 119.01748541 38.91495258 118.4165711 25.10839844 118.17700195 C25.24995314 121.21892208 25.39649745 124.26046543 25.54589844 127.30200195 C25.58521484 128.15793945 25.62453125 129.01387695 25.66503906 129.89575195 C25.84033774 133.40172552 26.04567938 136.80116273 26.62402344 140.2668457 C27.25577058 144.06242328 27.36994606 147.77269284 27.42089844 151.61450195 C27.44990234 152.33959961 27.47890625 153.06469727 27.50878906 153.81176758 C27.57391138 159.38723953 26.45244757 162.67079606 23.10839844 167.17700195 C17.33491267 170.17532483 11.14018222 169.50640202 4.79589844 169.48950195 C3.59771484 169.50561523 2.39953125 169.52172852 1.16503906 169.53833008 C-5.49609141 169.54200012 -11.02151416 169.49370266 -16.89160156 166.17700195 C-21.59294947 160.49682451 -21.44071914 155.2044256 -21.26660156 148.05200195 C-21.25371094 146.87629639 -21.24082031 145.70059082 -21.22753906 144.48925781 C-21.11161272 137.33850449 -20.81171246 130.20480745 -20.43066406 123.0637207 C-20.2968749 120.51731795 -20.16367424 117.97088684 -20.03134155 115.42440796 C-19.93777563 113.62667121 -19.84289534 111.82900241 -19.74673462 110.03140259 C-19.01166864 95.87724212 -18.82137935 81.75268984 -18.86425781 67.58325195 C-18.86651745 66.72835615 -18.86877708 65.87346035 -18.87110519 64.99265862 C-18.8958423 56.32068393 -18.94135242 47.64923047 -19.02983952 38.97766304 C-19.06076802 35.69857396 -19.08013177 32.41947597 -19.09734917 29.14028931 C-19.10851417 27.59886585 -19.12526603 26.0574715 -19.14793587 24.51617432 C-19.17912583 22.38417847 -19.19176381 20.25279476 -19.20043945 18.12060547 C-19.2131337 16.91952652 -19.22582794 15.71844757 -19.23890686 14.48097229 C-18.84505478 10.734195 -17.85573617 8.37589906 -15.89160156 5.17700195 C-10.53762373 0.96216834 -6.670369 0.06288007 0 0 Z " fill="#543A13" transform="translate(426.8916015625,935.822998046875)"/>
<path d="M0 0 C1.07572266 -0.00386719 2.15144531 -0.00773438 3.25976562 -0.01171875 C4.93135742 0.00568359 4.93135742 0.00568359 6.63671875 0.0234375 C7.73951172 0.01183594 8.84230469 0.00023437 9.97851562 -0.01171875 C16.42860156 0.01138604 21.5888064 0.32658953 27.32421875 3.3984375 C32.40582591 8.8576131 31.845994 14.41022017 31.71484375 21.578125 C31.70918396 22.7460257 31.70352417 23.91392639 31.69769287 25.11721802 C31.67535631 28.83638004 31.62516217 32.55456812 31.57421875 36.2734375 C31.55415036 38.79946522 31.53590019 41.32550809 31.51953125 43.8515625 C31.47550028 50.03418478 31.40861406 56.21624154 31.32421875 62.3984375 C41.31959265 57.83541602 46.76589633 40.88777654 51.53149414 31.65234375 C55.60024421 23.7697704 59.6446442 15.93893376 64.32421875 8.3984375 C64.78828125 7.53605469 65.25234375 6.67367187 65.73046875 5.78515625 C67.43488486 3.16053677 68.56057325 1.89447899 71.32421875 0.3984375 C84.40780614 -1.68334176 99.83443159 0.72965753 111.32421875 7.3984375 C113.66656781 10.9119611 113.6940239 12.26381046 113.32421875 16.3984375 C112.29296875 19.07421875 112.29296875 19.07421875 110.82421875 21.7109375 C110.36015625 22.57332031 109.89609375 23.43570313 109.41796875 24.32421875 C107.58631354 27.01360802 105.70515036 29.26061288 103.5234375 31.66015625 C99.45543025 36.14730001 96.02835589 40.89005368 92.63671875 45.8984375 C86.5417392 54.76181742 80.14727723 63.34179228 73.52246094 71.81469727 C70.49410325 75.81733711 69.77740022 78.12007205 69.90039062 83.03076172 C70.65941608 87.27098574 73.2325566 89.8605795 76.07421875 92.9609375 C77.27757161 94.35302571 78.47802205 95.74762732 79.67578125 97.14453125 C80.59278809 98.20003174 80.59278809 98.20003174 81.52832031 99.27685547 C84.32346161 102.57889162 86.88579762 106.04042241 89.44921875 109.5234375 C97.04590365 119.74758477 104.62616591 129.90488233 113.44921875 139.1171875 C117.32359103 143.8310071 118.71444036 147.69178918 118.51171875 153.7734375 C118.47111328 155.36285156 118.47111328 155.36285156 118.4296875 156.984375 C118.39488281 157.78101563 118.36007813 158.57765625 118.32421875 159.3984375 C104.42080819 165.35704203 83.15380639 169.30770998 68.32421875 164.3984375 C66.75366211 162.32324219 66.75366211 162.32324219 65.4140625 159.5703125 C64.65065552 158.04458618 64.65065552 158.04458618 63.87182617 156.48803711 C63.34049072 155.38596924 62.80915527 154.28390137 62.26171875 153.1484375 C61.11439726 150.85100299 59.96328763 148.55545674 58.80859375 146.26171875 C57.93944336 144.52849365 57.93944336 144.52849365 57.05273438 142.76025391 C54.53187815 137.85740218 51.79298719 133.09452095 49.01171875 128.3359375 C44.99896753 121.46457378 41.24393388 114.55114193 37.99682617 107.28100586 C36.06291434 103.15234949 34.26399724 101.55957226 30.32421875 99.3984375 C30.4437422 103.77276511 30.56805261 108.14692455 30.6965332 112.52099609 C30.73947105 114.00468381 30.78116887 115.48840801 30.8215332 116.97216797 C31.02496672 124.42135085 31.27185952 131.82304207 32.10375977 139.234375 C32.45947969 142.72618169 32.54668029 146.20322656 32.57421875 149.7109375 C32.59484375 150.38705078 32.61546875 151.06316406 32.63671875 151.75976562 C32.67122672 156.18109965 32.02347311 158.88623124 29.32421875 162.3984375 C22.28067684 168.03327103 14.95396615 167.60265635 6.32421875 167.6484375 C4.86628906 167.679375 4.86628906 167.679375 3.37890625 167.7109375 C-2.07192473 167.7406423 -5.98310036 167.50422147 -10.67578125 164.3984375 C-14.17111807 160.66204297 -14.80098677 157.04921055 -14.80859375 152.0546875 C-14.80988281 151.219375 -14.81117187 150.3840625 -14.8125 149.5234375 C-14.80863281 148.6571875 -14.80476563 147.7909375 -14.80078125 146.8984375 C-14.80464844 146.063125 -14.80851562 145.2278125 -14.8125 144.3671875 C-14.80556482 139.81771001 -14.60949254 135.34255196 -14.17832947 130.81298828 C-13.65051399 124.65215873 -13.51766022 118.54017865 -13.50219727 112.359375 C-13.49551025 111.2228801 -13.48882324 110.08638519 -13.48193359 108.91545105 C-13.46798801 106.47164941 -13.45606159 104.02783555 -13.44598579 101.58401489 C-13.42944757 97.71734055 -13.40621172 93.85075842 -13.38108826 89.98413086 C-13.3106193 78.9990705 -13.24990715 68.01397678 -13.19897461 57.02880859 C-13.16765556 50.29112636 -13.12599265 43.55357122 -13.07877922 36.815979 C-13.06275279 34.25150576 -13.0504342 31.68700659 -13.04187202 29.12249756 C-13.0297552 25.54899512 -13.00562648 21.9757613 -12.97875977 18.40234375 C-12.97817062 17.34154099 -12.97758148 16.28073822 -12.97697449 15.18778992 C-12.96725616 14.21517715 -12.95753784 13.24256439 -12.94752502 12.24047852 C-12.94329309 11.39695328 -12.93906115 10.55342804 -12.93470097 9.68434143 C-12.6473481 7.14741198 -12.02180772 5.55846839 -10.67578125 3.3984375 C-7.09281232 0.67585889 -4.45618341 0.01554095 0 0 Z " fill="#553B13" transform="translate(128.67578125,936.6015625)"/>
<path d="M0 0 C0.88812881 -0.00511093 1.77625763 -0.01022186 2.69129944 -0.01548767 C5.63305363 -0.02940964 8.57457416 -0.0284246 11.51635742 -0.02612305 C13.56035957 -0.03000923 15.60436091 -0.03434374 17.64836121 -0.03910828 C21.93649917 -0.04657659 26.22455483 -0.04627528 30.51269531 -0.04101562 C36.00394249 -0.03522756 41.49485166 -0.05213308 46.98604298 -0.0753603 C51.20942653 -0.09010574 55.43272891 -0.0909681 59.65613365 -0.08785057 C61.68030147 -0.08836362 63.70447385 -0.09359822 65.72861671 -0.10366249 C68.56278923 -0.1160218 71.39630643 -0.10923756 74.23046875 -0.09765625 C75.0644519 -0.10529999 75.89843506 -0.11294373 76.75769043 -0.12081909 C82.4818656 -0.0692119 86.59124993 1.02521579 91.12182617 4.7746582 C94.96322388 9.62695004 93.63431793 17.4789905 92.96557617 23.23168945 C91.939391 29.48286744 90.76819982 34.73706355 86.23510742 39.4152832 C82.29847072 41.91707101 79.36508231 41.76419536 74.80932617 41.5871582 C74.06295898 41.57749023 73.3165918 41.56782227 72.54760742 41.55786133 C69.58239437 41.49750743 66.81809365 41.38102416 63.90722656 40.77246094 C59.07123527 39.8458012 54.15635156 40.04799522 49.24682617 40.0246582 C48.15821289 40.0040332 47.06959961 39.9834082 45.94799805 39.9621582 C44.90063477 39.95700195 43.85327148 39.9518457 42.77416992 39.9465332 C41.82147217 39.9371875 40.86877441 39.9278418 39.88720703 39.91821289 C36.86556992 40.33601668 35.51737378 41.20797371 33.30932617 43.2746582 C32.10517078 46.30097466 32.14469228 49.35389029 32.12182617 52.5871582 C32.10764648 53.49079102 32.0934668 54.39442383 32.07885742 55.32543945 C32.35235394 58.82526778 33.31121287 61.91687352 34.30932617 65.2746582 C35.97318359 65.28867676 35.97318359 65.28867676 37.6706543 65.30297852 C41.81590823 65.34307922 45.96043557 65.40889218 50.10522461 65.48217773 C51.89354057 65.51027154 53.68197803 65.53154335 55.47045898 65.5456543 C58.05279219 65.56724571 60.63368237 65.6139753 63.21557617 65.6652832 C64.0054895 65.66651184 64.79540283 65.66774048 65.60925293 65.66900635 C71.18962031 65.81375701 75.68103944 67.05466081 80.30932617 70.2746582 C84.5845183 76.38328253 83.90177806 83.11719886 83.30932617 90.2746582 C82.52369909 94.36219619 81.69669839 97.81012302 78.79052734 100.87792969 C75.14085697 102.93241795 71.62572097 102.54688053 67.56323242 102.3918457 C65.82170564 102.35877972 64.08016873 102.32624398 62.33862305 102.29418945 C59.60183724 102.22587425 56.86564503 102.14946121 54.12939453 102.06225586 C51.48233484 101.9836374 48.83605771 101.93609573 46.18823242 101.8918457 C45.37350967 101.85662811 44.55878693 101.82141052 43.71937561 101.78512573 C39.39016569 101.72837808 37.81959167 101.87387085 34.28930664 104.64672852 C31.15233872 108.81027016 31.72587229 112.280293 32.30932617 117.2746582 C32.71152265 119.92043262 33.26149339 121.75985954 34.30932617 124.2746582 C37.42549389 126.37704319 40.03832159 126.521195 43.73901367 126.50512695 C44.78186523 126.50319336 45.8247168 126.50125977 46.89916992 126.49926758 C47.98327148 126.48702148 49.06737305 126.47477539 50.18432617 126.4621582 C51.79887695 126.46119141 51.79887695 126.46119141 53.44604492 126.46020508 C59.42621193 126.43421847 59.42621193 126.43421847 65.35620117 125.7668457 C70.11015596 124.97451991 74.87494561 125.17182146 79.68432617 125.2121582 C81.21766602 125.21892578 81.21766602 125.21892578 82.78198242 125.22583008 C85.29115812 125.2375552 87.80021107 125.25396644 90.30932617 125.2746582 C95.98827312 134.80063372 96.97734468 144.77289621 94.55541992 155.6652832 C92.92508542 160.44759775 91.76991928 163.61545846 87.30932617 166.2746582 C82.30141495 168.32953354 77.96343215 168.56595471 72.64526367 168.54931641 C71.37093475 168.5569828 71.37093475 168.5569828 70.07086182 168.56480408 C67.27527739 168.57865297 64.47994073 168.57774711 61.68432617 168.57543945 C59.73429269 168.57932844 57.78426006 168.58366353 55.83422852 168.58842468 C51.75233205 168.59587638 47.67052211 168.59560283 43.58862305 168.59033203 C38.36313358 168.58453317 33.13799808 168.60148362 27.91256714 168.6246767 C23.88734881 168.63942067 19.86221565 168.64028493 15.8369751 168.63716698 C13.91049497 168.63767967 11.98401002 168.6429076 10.05755615 168.6529789 C7.36260051 168.66534133 4.66833362 168.65855327 1.97338867 168.64697266 C1.18152161 168.65461639 0.38965454 168.66226013 -0.4262085 168.6701355 C-5.17186347 168.62515375 -8.73222183 168.17383391 -12.69067383 165.2746582 C-17.77033267 151.92883583 -15.00208623 133.59671529 -14.9922564 119.37794256 C-14.99117589 116.27849278 -14.9960961 113.17906304 -15.00086182 110.07961762 C-15.01188556 102.77156853 -15.01243163 95.46357091 -15.00634766 88.15551758 C-15.00028103 80.63214554 -15.01270295 73.10895924 -15.03391773 65.58561885 C-15.0515353 59.09777068 -15.05753579 52.6099817 -15.05427998 46.12211049 C-15.052471 42.2588951 -15.05506691 38.39581301 -15.06899452 34.53261948 C-15.08157487 30.90938549 -15.07962715 27.28644327 -15.06658363 23.66321373 C-15.06309643 21.70596427 -15.07438741 19.74870586 -15.08615112 17.79148865 C-15.02067317 6.85544911 -15.02067317 6.85544911 -11.69067383 2.2746582 C-7.79347122 -0.32347687 -4.52084232 -0.01333246 0 0 Z " fill="#553B13" transform="translate(785.690673828125,935.725341796875)"/>
<path d="M0 0 C2.15538164 0.0031586 4.30938762 -0.02031044 6.46459961 -0.0456543 C7.8428531 -0.04792773 9.22111025 -0.04863058 10.59936523 -0.04760742 C11.84645264 -0.05058838 13.09354004 -0.05356934 14.37841797 -0.05664062 C19.13502143 0.47202494 21.44832243 2.2219141 25.01416016 5.26904297 C27.70002238 10.04284652 27.23909736 14.67856781 27.15405273 20.06176758 C27.15076462 21.22329849 27.1474765 22.38482941 27.14408875 23.58155823 C27.12834886 27.30580724 27.08441888 31.02915871 27.04077148 34.75317383 C27.02927151 37.19392148 27.0194889 39.63467787 27.01147461 42.07543945 C26.95115871 53.86198901 26.68384323 65.61336231 26.07945251 77.38421631 C25.6287601 86.50370135 25.57679247 95.61350042 25.59790039 104.74267578 C25.60334537 107.54115016 25.5978627 110.33946933 25.59155273 113.13793945 C25.58867506 121.16143365 25.6141063 129.10373414 26.48803711 137.08935547 C27.41592353 145.68833538 27.81115837 154.54164871 24.38452148 162.61645508 C19.85106724 167.26752252 13.92102323 167.51789925 7.77905273 167.71411133 C5.19962597 167.72202773 2.62010667 167.71380688 0.04077148 167.69067383 C-1.2644043 167.70227539 -2.56958008 167.71387695 -3.91430664 167.72583008 C-5.17049805 167.72196289 -6.42668945 167.7180957 -7.72094727 167.71411133 C-8.85878662 167.71072754 -9.99662598 167.70734375 -11.16894531 167.70385742 C-14.63802563 167.26984706 -16.4904661 166.40276992 -19.27172852 164.31567383 C-21.31086959 161.25696222 -21.52050467 160.68752623 -21.5037384 157.25508118 C-21.50457994 156.42898409 -21.50542149 155.602887 -21.50628853 154.75175667 C-21.49696234 153.84770529 -21.48763615 152.94365391 -21.47802734 152.01220703 C-21.47608305 151.05648237 -21.47413876 150.10075771 -21.47213554 149.1160717 C-21.4631721 145.9285824 -21.43978663 142.74136767 -21.41625977 139.55395508 C-21.4066353 137.30211212 -21.39784601 135.05026546 -21.3898468 132.79841614 C-21.37105686 128.05039509 -21.34589889 123.30246663 -21.31573486 118.55450439 C-21.27142513 111.54702585 -21.24386561 104.53955082 -21.21850586 97.53198242 C-21.17900178 87.2857077 -21.11657172 77.03976249 -21.03597832 66.79372978 C-20.9905133 60.98912491 -20.95125692 55.18461071 -20.92529297 49.37988281 C-20.89936156 43.60979845 -20.85915682 37.83998161 -20.80854225 32.07006264 C-20.79195104 29.90555392 -20.78038882 27.7410002 -20.77411461 25.576437 C-20.76453435 22.59623567 -20.73659174 19.61674585 -20.70410156 16.63671875 C-20.70553665 15.76077057 -20.70697174 14.88482239 -20.70845032 13.98233032 C-20.63549207 9.27083894 -20.31072162 6.1534642 -17.27172852 2.31567383 C-12.50442457 -1.20810126 -5.67623489 -0.01744546 0 0 Z " fill="#523813" transform="translate(568.271728515625,935.684326171875)"/>
<path d="M0 0 C9.41908177 5.03347756 14.45849192 14.56472268 17.51953125 24.51953125 C19.92480926 37.1945356 19.25218383 50.27238336 14.21484375 62.18359375 C13.92609375 62.94800781 13.63734375 63.71242188 13.33984375 64.5 C10.50111367 71.17861943 5.12042966 76.13817539 -1.47265625 79.12109375 C-8.85125053 81.42599845 -17.01487263 81.40006057 -24.09765625 78.24609375 C-34.13029323 72.39915109 -38.39811495 63.97486486 -41.78515625 53.18359375 C-42.15125 52.075 -42.51734375 50.96640625 -42.89453125 49.82421875 C-45.8768936 37.63315863 -44.58900039 23.59032099 -38.34765625 12.66796875 C-28.95751276 -0.60463792 -15.28580539 -6.97882742 0 0 Z " fill="#E8D19B" transform="translate(328.78515625,979.81640625)"/>
<path d="M0 0 C10.56 0 21.12 0 32 0 C32.33 20.13 32.66 40.26 33 61 C47.85 61.495 47.85 61.495 63 62 C63 52.1 63 42.2 63 32 C73.89 32 84.78 32 96 32 C96 42.23 96 52.46 96 63 C85.44 63 74.88 63 64 63 C64 72.57 64 82.14 64 92 C59.60336967 92.02291238 55.20694512 92.04283833 50.81030273 92.05493164 C49.31355082 92.05997121 47.81680384 92.06680287 46.32006836 92.07543945 C44.17300193 92.08752159 42.02600038 92.09323191 39.87890625 92.09765625 C37.93866577 92.10551147 37.93866577 92.10551147 35.95922852 92.11352539 C33 92 33 92 32 91 C31.91232888 88.92737924 31.89304127 86.85179706 31.90234375 84.77734375 C31.90484131 83.64288818 31.90733887 82.50843262 31.90991211 81.33959961 C31.91901611 79.88690674 31.92812012 78.43421387 31.9375 76.9375 C31.958125 72.338125 31.97875 67.73875 32 63 C21.44 63 10.88 63 0 63 C0 42.21 0 21.42 0 0 Z " fill="#543A13" transform="translate(892,333)"/>
<path d="M0 0 C12.54 0 25.08 0 38 0 C38 19.47 38 38.94 38 59 C25.46 59 12.92 59 0 59 C0 39.53 0 20.06 0 0 Z " fill="#E9D29C" transform="translate(816,518)"/>
<path d="M0 0 C6.38816698 3.38600267 10.3211828 8.26504925 12.8203125 14.96484375 C13.86941775 20.85807848 13.13469794 25.95982565 10.140625 31.15234375 C5.64697758 37.32113785 -0.23521658 40.20685632 -7.1796875 42.96484375 C-8.1696875 43.45984375 -8.1696875 43.45984375 -9.1796875 43.96484375 C-14.38428837 44.47608474 -18.74414681 44.82616816 -23.3046875 42.08984375 C-26.85275385 38.06870189 -26.30872703 34.36266588 -26.27734375 29.23828125 C-26.2759288 28.37546539 -26.27451385 27.51264954 -26.27305603 26.62368774 C-26.26744938 23.86237145 -26.25489577 21.10113563 -26.2421875 18.33984375 C-26.23717336 16.47005325 -26.2326103 14.60026149 -26.22851562 12.73046875 C-26.21747779 8.14189598 -26.2002087 3.55338352 -26.1796875 -1.03515625 C-18.51885844 -3.58876594 -7.47090114 -3.0821018 0 0 Z " fill="#E7D09A" transform="translate(475.1796875,975.03515625)"/>
<path d="M0 0 C6.67114951 3.8445748 10.72609475 9.74280902 13.08984375 17.00390625 C14.60149673 23.38782918 13.68668372 28.24562161 10.80078125 34.02734375 C7.13768382 39.86287752 0.31198484 41.42354445 -5.97265625 43.23046875 C-11.05039652 44.35821941 -16.32676406 45.2562267 -21.4375 44 C-24.04454702 41.37234509 -25.32232266 39.706286 -25.92333984 36.02075195 C-25.91512207 34.93753662 -25.9069043 33.85432129 -25.8984375 32.73828125 C-25.89457031 31.53623047 -25.89070312 30.33417969 -25.88671875 29.09570312 C-25.86222656 27.84724609 -25.83773437 26.59878906 -25.8125 25.3125 C-25.81121094 24.08337891 -25.80992187 22.85425781 -25.80859375 21.58789062 C-25.66648957 6.78537147 -25.66648957 6.78537147 -23.4375 1 C-17.44914844 -4.60166917 -6.97134022 -3.12654046 0 0 Z " fill="#E7D09A" transform="translate(688.4375,972)"/>
<path d="M0 0 C49.23341457 -0.06861688 98.46682433 -0.12150373 147.70027728 -0.15319599 C153.50835551 -0.15694826 159.31643364 -0.16083121 165.12451172 -0.16479492 C166.28083039 -0.16558185 167.43714907 -0.16636878 168.6285077 -0.16717956 C187.36904699 -0.1802453 206.10955876 -0.20390556 224.85008171 -0.23145839 C244.06935022 -0.25948011 263.28860428 -0.2761694 282.50789237 -0.28226548 C294.37405206 -0.28638865 306.24013399 -0.29942677 318.10626975 -0.3237494 C326.2354231 -0.33956671 334.36453606 -0.34440947 342.49370369 -0.34050413 C347.18882042 -0.33857633 351.88380095 -0.34160012 356.57889366 -0.35761642 C360.87339044 -0.37215975 365.16765876 -0.37298883 369.4621658 -0.36269668 C371.01943179 -0.36142368 372.57671173 -0.36527636 374.13395002 -0.37464955 C376.2442115 -0.38661743 378.3536387 -0.38024457 380.46388626 -0.36914349 C381.63798152 -0.37028265 382.81207678 -0.37142181 384.02175069 -0.37259549 C387 0 387 0 391 3 C218.41 3 45.82 3 -132 3 C-132 2.67 -132 2.34 -132 2 C-88.44 1.67 -44.88 1.34 0 1 C0 0.67 0 0.34 0 0 Z " fill="#7C6237" transform="translate(729,835)"/>
<path d="M0 0 C10.56 0 21.12 0 32 0 C32 10.56 32 21.12 32 32 C21.44 32 10.88 32 0 32 C0 21.44 0 10.88 0 0 Z " fill="#543A13" transform="translate(924,301)"/>
<path d="M0 0 C9.9 0 19.8 0 30 0 C30 9.9 30 19.8 30 30 C20.1 30 10.2 30 0 30 C0 20.1 0 10.2 0 0 Z " fill="#E8D19B" transform="translate(542,207)"/>
<path d="M0 0 C0.33 0 0.66 0 1 0 C1 10.89 1 21.78 1 33 C-8.9 33 -18.8 33 -29 33 C-29 89.1 -29 145.2 -29 203 C-19.43 203 -9.86 203 0 203 C0.66 203.33 1.32 203.66 2 204 C2.04955115 210.01398527 2.08579131 216.02785086 2.10986328 222.04199219 C2.11990179 224.08660961 2.13353542 226.13121274 2.15087891 228.17578125 C2.1752217 231.11982761 2.18650478 234.06368363 2.1953125 237.0078125 C2.20563507 237.9174173 2.21595764 238.82702209 2.22659302 239.76419067 C2.22743991 244.58804539 1.88400471 248.46926202 0 253 C-5.73385653 253.98264015 -11.28315548 254.14540366 -17.09375 254.1328125 C-18.55312988 254.13479141 -18.55312988 254.13479141 -20.04199219 254.1368103 C-23.19469427 254.13872001 -26.34730701 254.13240573 -29.5 254.125 C-30.56903564 254.12411377 -31.63807129 254.12322754 -32.73950195 254.12231445 C-50.51008146 254.10498511 -68.24624862 253.78203029 -86 253 C-86 252.67 -86 252.34 -86 252 C-57.62 251.67 -29.24 251.34 0 251 C-0.33 250.34 -0.66 249.68 -1 249 C-1.08918777 247.61090696 -1.11759541 246.21763093 -1.11352539 244.82568359 C-1.11341209 243.53457169 -1.11341209 243.53457169 -1.11329651 242.21737671 C-1.10813522 241.28712677 -1.10297394 240.35687683 -1.09765625 239.3984375 C-1.0962413 238.44683746 -1.09482635 237.49523743 -1.09336853 236.51480103 C-1.08776012 233.46816903 -1.07520619 230.42160987 -1.0625 227.375 C-1.05748608 225.31250106 -1.05292299 223.25000097 -1.04882812 221.1875 C-1.03778796 216.12497183 -1.02051767 211.06249827 -1 206 C-1.80743652 206.03552979 -2.61487305 206.07105957 -3.44677734 206.10766602 C-7.08930321 206.26483883 -10.73211992 206.41377354 -14.375 206.5625 C-15.64601563 206.61857422 -16.91703125 206.67464844 -18.2265625 206.73242188 C-20.04414062 206.80493164 -20.04414062 206.80493164 -21.8984375 206.87890625 C-23.01911621 206.9260376 -24.13979492 206.97316895 -25.29443359 207.02172852 C-28 207 -28 207 -30 206 C-30 148.58 -30 91.16 -30 32 C-20.1 32 -10.2 32 0 32 C0 21.44 0 10.88 0 0 Z " fill="#897043" transform="translate(593,648)"/>
<path d="M0 0 C10.56 0 21.12 0 32 0 C32 10.56 32 21.12 32 32 C21.44 32 10.88 32 0 32 C0 31.67 0 31.34 0 31 C14.85 30.505 14.85 30.505 30 30 C30 21.09 30 12.18 30 3 C20.43 3 10.86 3 1 3 C1 11.58 1 20.16 1 29 C9.25 29 17.5 29 26 29 C26 29.33 26 29.66 26 30 C17.42 30 8.84 30 0 30 C0 20.1 0 10.2 0 0 Z " fill="#6D532A" transform="translate(924,301)"/>
<path d="M0 0 C2.97 0 5.94 0 9 0 C9 0.33 9 0.66 9 1 C6.69 1 4.38 1 2 1 C2 20.8 2 40.6 2 61 C11.57 61 21.14 61 31 61 C31 49.45 31 37.9 31 26 C31.33 26 31.66 26 32 26 C32.16723554 31.10845794 32.32783286 36.21706404 32.48217773 41.32592773 C32.53567262 43.06524323 32.59100755 44.80450312 32.64819336 46.54370117 C32.72989627 49.03812666 32.80506164 51.53267483 32.87890625 54.02734375 C32.91945885 55.2007859 32.91945885 55.2007859 32.96083069 56.39793396 C33.01288386 58.26460933 33.01187025 60.13263674 33 62 C32 63 32 63 28.94897461 63.11352539 C27.60008731 63.11327443 26.25119355 63.10771815 24.90234375 63.09765625 C23.60546631 63.09515869 22.30858887 63.09266113 20.97241211 63.09008789 C19.31089111 63.08098389 17.64937012 63.07187988 15.9375 63.0625 C10.678125 63.041875 5.41875 63.02125 0 63 C0 42.21 0 21.42 0 0 Z " fill="#5D431B" transform="translate(892,333)"/>
<path d="M0 0 C4.1117256 -0.02465746 8.22342278 -0.04283959 12.33520508 -0.05493164 C13.73495228 -0.0599708 15.1346942 -0.06680216 16.53442383 -0.07543945 C18.54245777 -0.0875232 20.55052957 -0.09269807 22.55859375 -0.09765625 C24.37315063 -0.10551147 24.37315063 -0.10551147 26.22436523 -0.11352539 C29 0 29 0 30 1 C30.08775605 3.14558827 30.10695219 5.29404421 30.09765625 7.44140625 C30.09443359 8.74658203 30.09121094 10.05175781 30.08789062 11.39648438 C30.07953401 12.7851569 30.07106905 14.17382877 30.0625 15.5625 C30.05748666 16.95507656 30.05292347 18.34765481 30.04882812 19.74023438 C30.03699434 23.1601987 30.0205088 26.58007844 30 30 C25.60343827 30.02465504 21.2069128 30.04283842 16.81030273 30.05493164 C15.31355082 30.05997121 13.81680384 30.06680287 12.32006836 30.07543945 C10.17300193 30.08752159 8.02600038 30.09323191 5.87890625 30.09765625 C3.93866577 30.10551147 3.93866577 30.10551147 1.95922852 30.11352539 C-1 30 -1 30 -2 29 C-2.16796875 27.00390625 -2.16796875 27.00390625 -2.1875 24.5625 C-2.20167969 23.75941406 -2.21585938 22.95632813 -2.23046875 22.12890625 C-2 20 -2 20 0 18 C0 21.63 0 25.26 0 29 C1.32 28.67 2.64 28.34 4 28 C5.9517327 27.91940003 7.90600418 27.89237757 9.859375 27.90234375 C10.97441406 27.90556641 12.08945312 27.90878906 13.23828125 27.91210938 C14.39714844 27.92048828 15.55601562 27.92886719 16.75 27.9375 C17.92433594 27.94201172 19.09867188 27.94652344 20.30859375 27.95117188 C23.20578072 27.96294906 26.10286454 27.97939674 29 28 C28.9285376 27.22366211 28.8570752 26.44732422 28.78344727 25.64746094 C28.26891697 19.82540463 27.8790593 14.09407036 27.9375 8.25 C27.94652344 7.05890625 27.95554687 5.8678125 27.96484375 4.640625 C27.97644531 3.76921875 27.98804688 2.8978125 28 2 C27.40316406 2.01160156 26.80632813 2.02320313 26.19140625 2.03515625 C17.43189687 2.12626556 8.73561575 1.57349881 0 1 C0 0.67 0 0.34 0 0 Z " fill="#7E653A" transform="translate(926,395)"/>
<path d="M0 0 C1.00796127 -0.00430527 1.00796127 -0.00430527 2.0362854 -0.00869751 C3.45681603 -0.01073699 4.87737481 -0.00521507 6.29785156 0.00732422 C8.46223543 0.02333154 10.62473793 0.00749998 12.7890625 -0.01171875 C14.17187909 -0.00973531 15.55469452 -0.00588955 16.9375 0 C18.19095215 0.00338379 19.4444043 0.00676758 20.73583984 0.01025391 C24.34046405 0.42599107 26.29059813 1.12117514 29.1015625 3.3984375 C29.1015625 4.3884375 29.1015625 5.3784375 29.1015625 6.3984375 C28.44003174 5.90947998 27.77850098 5.42052246 27.09692383 4.91674805 C23.38262911 3.03401931 20.23653842 3.01788552 16.17578125 3.10546875 C15.42819046 3.10971359 14.68059967 3.11395844 13.91035461 3.11833191 C11.53621518 3.13504694 9.16294283 3.17268403 6.7890625 3.2109375 C5.17384044 3.22599369 3.55860499 3.23968047 1.94335938 3.25195312 C-2.00423738 3.2849267 -5.95119072 3.33665781 -9.8984375 3.3984375 C-7.1891617 -0.34058588 -4.3937797 0.01188273 0 0 Z " fill="#38230C" transform="translate(561.8984375,935.6015625)"/>
<path d="M0 0 C6.6 0 13.2 0 20 0 C20 9.9 20 19.8 20 30 C19.67 29.34 19.34 28.68 19 28 C18.34 28 17.68 28 17 28 C17.33 27.01 17.66 26.02 18 25 C18.08209792 23.22686149 18.10746294 21.45079225 18.09765625 19.67578125 C18.09443359 18.64775391 18.09121094 17.61972656 18.08789062 16.56054688 C18.07951172 15.48869141 18.07113281 14.41683594 18.0625 13.3125 C18.05798828 12.22904297 18.05347656 11.14558594 18.04882812 10.02929688 C18.03703757 7.35284106 18.01910208 4.67641361 18 2 C12.06 2 6.12 2 0 2 C0 1.34 0 0.68 0 0 Z " fill="#61481F" transform="translate(725,396)"/>
<path d="M0 0 C0.33 0 0.66 0 1 0 C1.16723554 5.10845794 1.32783286 10.21706404 1.48217773 15.32592773 C1.53567262 17.06524323 1.59100755 18.80450312 1.64819336 20.54370117 C1.72989627 23.03812666 1.80506164 25.53267483 1.87890625 28.02734375 C1.90594131 28.80963852 1.93297638 29.59193329 1.96083069 30.39793396 C2.01288386 32.26460933 2.01187025 34.13263674 2 36 C1 37 1 37 -2.05102539 37.11352539 C-3.39991271 37.11336634 -4.74880614 37.10767612 -6.09765625 37.09765625 C-7.16094398 37.09553383 -7.16094398 37.09553383 -8.24571228 37.09336853 C-10.51801712 37.08775443 -12.79022475 37.07519963 -15.0625 37.0625 C-16.59960796 37.05748681 -18.13671745 37.05292359 -19.67382812 37.04882812 C-23.44925642 37.03778042 -27.22461171 37.02050641 -31 37 C-30.67 36.34 -30.34 35.68 -30 35 C-20.1 35 -10.2 35 0 35 C0 23.45 0 11.9 0 0 Z " fill="#795F34" transform="translate(923,359)"/>
<path d="M0 0 C0.33 0 0.66 0 1 0 C1.00586624 0.54821915 1.01173248 1.09643829 1.01777649 1.66127014 C1.08191437 7.38836428 1.16638565 13.11490706 1.26245117 18.84155273 C1.29562117 20.97624422 1.32367758 23.11102173 1.34643555 25.24584961 C1.38012717 28.32182331 1.43245103 31.39701426 1.48828125 34.47265625 C1.49467117 35.42084732 1.5010611 36.36903839 1.50764465 37.34596252 C1.63049127 42.93406167 2.18970581 47.11068893 5 52 C8.08369887 53.05749557 8.08369887 53.05749557 11 53 C9.3125 54.125 9.3125 54.125 7 55 C3.19897739 54.00449408 2.22768322 53.34152484 0 50 C-0.24050903 47.74104309 -0.24050903 47.74104309 -0.22705078 45.06958008 C-0.22689972 44.06876907 -0.22674866 43.06795807 -0.22659302 42.03681946 C-0.21627045 40.95861435 -0.20594788 39.88040924 -0.1953125 38.76953125 C-0.1924826 37.66397385 -0.18965271 36.55841644 -0.18673706 35.4193573 C-0.17553002 31.88362872 -0.15042427 28.3481522 -0.125 24.8125 C-0.11497089 22.41732136 -0.10584492 20.02213876 -0.09765625 17.62695312 C-0.07558897 11.75121589 -0.04210618 5.87562595 0 0 Z " fill="#594427" transform="translate(547,1047)"/>
<path d="M0 0 C0.33 0 0.66 0 1 0 C1 4.95 1 9.9 1 15 C-5.6 15 -12.2 15 -19 15 C-19.33 14.34 -19.66 13.68 -20 13 C-10.1 12.505 -10.1 12.505 0 12 C0 8.04 0 4.08 0 0 Z " fill="#624920" transform="translate(285,822)"/>
<path d="M0 0 C6.6 0 13.2 0 20 0 C20 1.65 20 3.3 20 5 C19.01 5.495 19.01 5.495 18 6 C18 4.68 18 3.36 18 2 C12.06 2 6.12 2 0 2 C0 1.34 0 0.68 0 0 Z " fill="#61471E" transform="translate(904,333)"/>
<path d="M0 0 C9.57 0.33 19.14 0.66 29 1 C29 1.33 29 1.66 29 2 C24.5420032 2.19616609 20.08359465 2.38047068 15.625 2.5625 C14.35398437 2.61857422 13.08296875 2.67464844 11.7734375 2.73242188 C10.56171875 2.78076172 9.35 2.82910156 8.1015625 2.87890625 C6.42054443 2.94960327 6.42054443 2.94960327 4.70556641 3.02172852 C2 3 2 3 0 2 C0 1.34 0 0.68 0 0 Z " fill="#70562C" transform="translate(563,852)"/>
<path d="M0 0 C3.3 0 6.6 0 10 0 C8.68 0.99 7.36 1.98 6 3 C4.06201737 5.77260299 4.06201737 5.77260299 3 8 C1.5 6.8125 1.5 6.8125 0 5 C0 3.35 0 1.7 0 0 Z " fill="#5D4521" transform="translate(550,997)"/>
<path d="M0 0 C2 2 2 2 3.25 5.5625 C3.8275 6.696875 4.405 7.83125 5 9 C8.08369887 10.05749557 8.08369887 10.05749557 11 10 C9.3125 11.125 9.3125 11.125 7 12 C3.19897739 11.00449408 2.22768322 10.34152484 0 7 C-0.07905064 4.66800612 -0.08798769 2.33167378 0 0 Z " fill="#664F2B" transform="translate(547,1090)"/>
<path d="M0 0 C0.83265381 0.04713135 1.66530762 0.0942627 2.52319336 0.14282227 C3.871875 0.21533203 3.871875 0.21533203 5.24780273 0.28930664 C6.19333008 0.34538086 7.13885742 0.40145508 8.11303711 0.45922852 C9.53712891 0.53753906 9.53712891 0.53753906 10.98999023 0.61743164 C13.34380663 0.74754209 15.6972441 0.88251963 18.05053711 1.02172852 C18.05053711 1.35172852 18.05053711 1.68172852 18.05053711 2.02172852 C12.11053711 2.02172852 6.17053711 2.02172852 0.05053711 2.02172852 C-0.27946289 2.68172852 -0.60946289 3.34172852 -0.94946289 4.02172852 C-1.60946289 3.03172852 -2.26946289 2.04172852 -2.94946289 1.02172852 C-1.94946289 0.02172852 -1.94946289 0.02172852 0 0 Z " fill="#664F2B" transform="translate(552.949462890625,937.978271484375)"/>
<path d="M0 0 C2.31 0.33 4.62 0.66 7 1 C7 1.66 7 2.32 7 3 C5.02 3 3.04 3 1 3 C0.67 4.32 0.34 5.64 0 7 C0 4.69 0 2.38 0 0 Z " fill="#5B4119" transform="translate(924,395)"/>
</svg>
